ETBookOT-Roman.ufo
<glyph name="exclam" format="1">
  <advance width="272"/>
  <unicode hex="0021"/>
  <outline>
    <contour>
      <point x="189" y="647" type="curve" smooth="yes"/>
      <point x="151" y="183" type="line" smooth="yes"/>
      <point x="147" y="175"/>
      <point x="129" y="170"/>
      <point x="123" y="183" type="curve"/>
      <point x="85" y="647" type="line" smooth="yes"/>
      <point x="83" y="668"/>
      <point x="81" y="691"/>
      <point x="116" y="690" type="curve" smooth="yes"/>
      <point x="149" y="689" type="line" smooth="yes"/>
      <point x="189" y="688"/>
      <point x="192" y="681"/>
    </contour>
    <contour>
      <point x="193" y="38" type="curve" smooth="yes"/>
      <point x="193" y="7"/>
      <point x="169" y="-15"/>
      <point x="137" y="-15" type="curve" smooth="yes"/>
      <point x="105" y="-15"/>
      <point x="82" y="7"/>
      <point x="82" y="38" type="curve" smooth="yes"/>
      <point x="82" y="70"/>
      <point x="105" y="91"/>
      <point x="137" y="91" type="curve" smooth="yes"/>
      <point x="168" y="91"/>
      <point x="193" y="70"/>
    </contour>
  </outline>
</glyph>
<glyph name="parenleft" format="1">
  <advance width="326"/>
  <unicode hex="0028"/>
  <outline>
    <contour>
      <point x="307" y="-193" type="curve" smooth="yes"/>
      <point x="313" y="-206"/>
      <point x="298" y="-217"/>
      <point x="283" y="-224" type="curve" smooth="yes"/>
      <point x="275" y="-228"/>
      <point x="268" y="-223"/>
      <point x="262" y="-216" type="curve" smooth="yes"/>
      <point x="152" y="-94"/>
      <point x="79" y="75"/>
      <point x="79" y="240" type="curve" smooth="yes"/>
      <point x="79" y="411"/>
      <point x="156" y="580"/>
      <point x="271" y="705" type="curve"/>
      <point x="291" y="720"/>
      <point x="319" y="691"/>
      <point x="307" y="672" type="curve" smooth="yes"/>
      <point x="264" y="624"/>
      <point x="216" y="539"/>
      <point x="188" y="466" type="curve" smooth="yes"/>
      <point x="161" y="395"/>
      <point x="150" y="329"/>
      <point x="150" y="240" type="curve" smooth="yes"/>
      <point x="150" y="109"/>
      <point x="175" y="17"/>
      <point x="242" y="-100" type="curve" smooth="yes"/>
      <point x="269" y="-147"/>
      <point x="278" y="-159"/>
    </contour>
  </outline>
</glyph>
<glyph name="comma" format="1">
  <advance width="251"/>
  <unicode hex="002C"/>
  <outline>
    <contour>
      <point x="190" y="4" type="curve" smooth="yes"/>
      <point x="190" y="-52"/>
      <point x="154" y="-110"/>
      <point x="98" y="-136" type="curve" smooth="yes"/>
      <point x="92" y="-139"/>
      <point x="82" y="-141"/>
      <point x="78" y="-137" type="curve" smooth="yes"/>
      <point x="76" y="-135"/>
      <point x="75" y="-132"/>
      <point x="73" y="-130" type="curve" smooth="yes"/>
      <point x="71" y="-124"/>
      <point x="69" y="-115"/>
      <point x="76" y="-113" type="curve" smooth="yes"/>
      <point x="121" y="-86"/>
      <point x="143" y="-56"/>
      <point x="143" y="-26" type="curve" smooth="yes"/>
      <point x="143" y="-19"/>
      <point x="142" y="-16"/>
      <point x="139" y="-15" type="curve" smooth="yes"/>
      <point x="136" y="-13"/>
      <point x="129" y="-15"/>
      <point x="126" y="-16" type="curve" smooth="yes"/>
      <point x="95" y="-23"/>
      <point x="70" y="-1"/>
      <point x="70" y="31" type="curve" smooth="yes"/>
      <point x="70" y="61"/>
      <point x="95" y="82"/>
      <point x="124" y="82" type="curve" smooth="yes"/>
      <point x="164" y="82"/>
      <point x="190" y="50"/>
    </contour>
  </outline>
</glyph>
<glyph name="slash" format="1">
  <advance width="479"/>
  <unicode hex="002F"/>
  <outline>
    <contour>
      <point x="450" y="648" type="curve" smooth="yes"/>
      <point x="113" y="-2" type="line" smooth="yes"/>
      <point x="108" y="-12"/>
      <point x="103" y="-22"/>
      <point x="91" y="-21" type="curve" smooth="yes"/>
      <point x="80" y="-20"/>
      <point x="23" y="-28"/>
      <point x="40" y="5" type="curve" smooth="yes"/>
      <point x="155" y="226"/>
      <point x="264" y="440"/>
      <point x="379" y="661" type="curve" smooth="yes"/>
      <point x="382" y="666"/>
      <point x="388" y="677"/>
      <point x="396" y="677" type="curve" smooth="yes"/>
      <point x="446" y="675" type="line" smooth="yes"/>
      <point x="453" y="675"/>
      <point x="461" y="664"/>
    </contour>
  </outline>
</glyph>
<glyph name="zero" format="1">
  <advance width="489"/>
  <unicode hex="0030"/>
  <outline>
    <contour>
      <point x="461" y="218" type="curve" smooth="yes"/>
      <point x="461" y="82"/>
      <point x="375" y="-14"/>
      <point x="249" y="-14" type="curve" smooth="yes"/>
      <point x="128" y="-14"/>
      <point x="40" y="83"/>
      <point x="40" y="215" type="curve" smooth="yes"/>
      <point x="40" y="355"/>
      <point x="127" y="455"/>
      <point x="250" y="455" type="curve" smooth="yes"/>
      <point x="375" y="455"/>
      <point x="461" y="356"/>
    </contour>
    <contour>
      <point x="391" y="220" type="curve" smooth="yes"/>
      <point x="391" y="340"/>
      <point x="338" y="408"/>
      <point x="248" y="408" type="curve" smooth="yes"/>
      <point x="165" y="408"/>
      <point x="111" y="337"/>
      <point x="111" y="221" type="curve" smooth="yes"/>
      <point x="111" y="104"/>
      <point x="164" y="35"/>
      <point x="249" y="35" type="curve" smooth="yes"/>
      <point x="337" y="35"/>
      <point x="391" y="103"/>
    </contour>
  </outline>
</glyph>
<glyph name="four" format="1">
  <advance width="489"/>
  <unicode hex="0034"/>
  <outline>
    <contour>
      <point x="457" y="12" type="curve" smooth="yes"/>
      <point x="457" y="4"/>
      <point x="443" y="-2"/>
      <point x="440" y="-1" type="curve" smooth="yes"/>
      <point x="353" y="0" type="line" smooth="yes"/>
      <point x="349" y="0"/>
      <point x="339" y="-8"/>
      <point x="339" y="-13" type="curve" smooth="yes"/>
      <point x="341" y="-64"/>
      <point x="340" y="-127"/>
      <point x="339" y="-159" type="curve" smooth="yes"/>
      <point x="339" y="-168"/>
      <point x="337" y="-178"/>
      <point x="323" y="-178" type="curve" smooth="yes"/>
      <point x="272" y="-178" type="line" smooth="yes"/>
      <point x="264" y="-179"/>
      <point x="258" y="-166"/>
      <point x="258" y="-161" type="curve" smooth="yes"/>
      <point x="256" y="-119"/>
      <point x="254" y="-63"/>
      <point x="257" y="-19" type="curve" smooth="yes"/>
      <point x="256" y="-12"/>
      <point x="256" y="1"/>
      <point x="247" y="0" type="curve" smooth="yes"/>
      <point x="193" y="-3"/>
      <point x="86" y="-2"/>
      <point x="32" y="0" type="curve" smooth="yes"/>
      <point x="27" y="1"/>
      <point x="23" y="18"/>
      <point x="29" y="27" type="curve" smooth="yes"/>
      <point x="308" y="449" type="line" smooth="yes"/>
      <point x="312" y="454"/>
      <point x="321" y="458"/>
      <point x="329" y="457" type="curve" smooth="yes"/>
      <point x="334" y="455"/>
      <point x="339" y="453"/>
      <point x="339" y="447" type="curve" smooth="yes"/>
      <point x="339" y="76" type="line" smooth="yes"/>
      <point x="341" y="66"/>
      <point x="344" y="63"/>
      <point x="353" y="59" type="curve"/>
      <point x="435" y="61" type="line" smooth="yes"/>
      <point x="444" y="59"/>
      <point x="453" y="63"/>
      <point x="456" y="50" type="curve" smooth="yes"/>
      <point x="457" y="44"/>
      <point x="457" y="20"/>
    </contour>
    <contour>
      <point x="258" y="69" type="curve"/>
      <point x="257" y="125"/>
      <point x="255" y="223"/>
      <point x="258" y="288" type="curve" smooth="yes"/>
      <point x="259" y="291"/>
      <point x="256" y="309"/>
      <point x="251" y="301" type="curve" smooth="yes"/>
      <point x="103" y="74" type="line" smooth="yes"/>
      <point x="99" y="67"/>
      <point x="102" y="59"/>
      <point x="108" y="59" type="curve" smooth="yes"/>
      <point x="141" y="58"/>
      <point x="201" y="58"/>
      <point x="239" y="59" type="curve" smooth="yes"/>
      <point x="253" y="60"/>
      <point x="250" y="58"/>
    </contour>
  </outline>
</glyph>
<glyph name="semicolon" format="1">
  <advance width="230"/>
  <unicode hex="003B"/>
  <outline>
    <contour>
      <point x="171" y="348" type="curve" smooth="yes"/>
      <point x="171" y="319"/>
      <point x="147" y="298"/>
      <point x="117" y="298" type="curve" smooth="yes"/>
      <point x="86" y="298"/>
      <point x="64" y="319"/>
      <point x="64" y="348" type="curve" smooth="yes"/>
      <point x="64" y="378"/>
      <point x="86" y="399"/>
      <point x="117" y="399" type="curve" smooth="yes"/>
      <point x="147" y="399"/>
      <point x="171" y="379"/>
    </contour>
    <contour>
      <point x="191" y="6" type="curve" smooth="yes"/>
      <point x="191" y="-56"/>
      <point x="145" y="-118"/>
      <point x="79" y="-144" type="curve" smooth="yes"/>
      <point x="68" y="-148"/>
      <point x="57" y="-122"/>
      <point x="69" y="-117" type="curve" smooth="yes"/>
      <point x="117" y="-88"/>
      <point x="140" y="-56"/>
      <point x="140" y="-24" type="curve" smooth="yes"/>
      <point x="140" y="-13"/>
      <point x="136" y="-10"/>
      <point x="133" y="-10" type="curve" smooth="yes"/>
      <point x="125" y="-10"/>
      <point x="117" y="-13"/>
      <point x="109" y="-13" type="curve" smooth="yes"/>
      <point x="83" y="-13"/>
      <point x="63" y="9"/>
      <point x="63" y="36" type="curve" smooth="yes"/>
      <point x="63" y="66"/>
      <point x="88" y="88"/>
      <point x="119" y="88" type="curve" smooth="yes"/>
      <point x="160" y="88"/>
      <point x="191" y="54"/>
    </contour>
  </outline>
</glyph>
<glyph name="B" format="1">
  <advance width="656"/>
  <unicode hex="0042"/>
  <outline>
    <contour>
      <point x="613" y="199" type="curve" smooth="yes"/>
      <point x="613" y="107"/>
      <point x="546" y="23"/>
      <point x="460" y="6" type="curve" smooth="yes"/>
      <point x="427" y="0"/>
      <point x="409" y="-6"/>
      <point x="325" y="-4" type="curve" smooth="yes"/>
      <point x="226" y="-2"/>
      <point x="115" y="-2"/>
      <point x="29" y="-4" type="curve" smooth="yes"/>
      <point x="17" y="-3"/>
      <point x="20" y="29"/>
      <point x="28" y="32" type="curve" smooth="yes"/>
      <point x="35" y="33"/>
      <point x="46" y="35"/>
      <point x="52" y="33" type="curve" smooth="yes"/>
      <point x="138" y="33"/>
      <point x="147" y="40"/>
      <point x="147" y="133" type="curve" smooth="yes"/>
      <point x="147" y="515" type="line" smooth="yes"/>
      <point x="147" y="613"/>
      <point x="140" y="617"/>
      <point x="60" y="617" type="curve" smooth="yes"/>
      <point x="37" y="617" type="line" smooth="yes"/>
      <point x="26" y="617"/>
      <point x="29" y="650"/>
      <point x="37" y="651" type="curve" smooth="yes"/>
      <point x="46" y="652" type="line" smooth="yes"/>
      <point x="140" y="662"/>
      <point x="235" y="660"/>
      <point x="331" y="660" type="curve" smooth="yes"/>
      <point x="419" y="660"/>
      <point x="440" y="653"/>
      <point x="487" y="632" type="curve" smooth="yes"/>
      <point x="541" y="607"/>
      <point x="574" y="558"/>
      <point x="574" y="503" type="curve" smooth="yes"/>
      <point x="574" y="446"/>
      <point x="536" y="397"/>
      <point x="478" y="376" type="curve" smooth="yes"/>
      <point x="473" y="374"/>
      <point x="474" y="371"/>
      <point x="480" y="368" type="curve" smooth="yes"/>
      <point x="486" y="365"/>
      <point x="494" y="361"/>
      <point x="500" y="358" type="curve" smooth="yes"/>
      <point x="570" y="324"/>
      <point x="613" y="268"/>
    </contour>
    <contour>
      <point x="470" y="497" type="curve" smooth="yes"/>
      <point x="470" y="539"/>
      <point x="454" y="575"/>
      <point x="426" y="599" type="curve" smooth="yes"/>
      <point x="378" y="638"/>
      <point x="316" y="633"/>
      <point x="258" y="628" type="curve" smooth="yes"/>
      <point x="253" y="627"/>
      <point x="244" y="618"/>
      <point x="244" y="609" type="curve" smooth="yes"/>
      <point x="244" y="405" type="line" smooth="yes"/>
      <point x="244" y="390"/>
      <point x="255" y="385"/>
      <point x="256" y="385" type="curve" smooth="yes"/>
      <point x="305" y="385"/>
      <point x="371" y="380"/>
      <point x="417" y="400" type="curve" smooth="yes"/>
      <point x="450" y="414"/>
      <point x="470" y="450"/>
    </contour>
    <contour>
      <point x="506" y="193" type="curve" smooth="yes"/>
      <point x="506" y="249"/>
      <point x="476" y="300"/>
      <point x="429" y="328" type="curve" smooth="yes"/>
      <point x="376" y="359"/>
      <point x="325" y="351"/>
      <point x="266" y="351" type="curve" smooth="yes"/>
      <point x="255" y="349"/>
      <point x="244" y="343"/>
      <point x="244" y="330" type="curve" smooth="yes"/>
      <point x="244" y="176" type="line" smooth="yes"/>
      <point x="244" y="141"/>
      <point x="246" y="112"/>
      <point x="249" y="96" type="curve" smooth="yes"/>
      <point x="256" y="57"/>
      <point x="288" y="37"/>
      <point x="358" y="37" type="curve" smooth="yes"/>
      <point x="446" y="37"/>
      <point x="506" y="107"/>
    </contour>
  </outline>
</glyph>
<glyph name="C" format="1">
  <advance width="762"/>
  <unicode hex="0043"/>
  <outline>
    <contour>
      <point x="699" y="167" type="curve" smooth="yes"/>
      <point x="684" y="115"/>
      <point x="656" y="52"/>
      <point x="629" y="7" type="curve"/>
      <point x="616" y="10"/>
      <point x="613" y="10"/>
      <point x="606" y="10" type="curve" smooth="yes"/>
      <point x="571" y="10"/>
      <point x="560" y="5"/>
      <point x="528" y="-5" type="curve" smooth="yes"/>
      <point x="491" y="-17"/>
      <point x="451" y="-19"/>
      <point x="413" y="-19" type="curve" smooth="yes"/>
      <point x="201" y="-19"/>
      <point x="56" y="123"/>
      <point x="56" y="317" type="curve" smooth="yes"/>
      <point x="56" y="522"/>
      <point x="205" y="665"/>
      <point x="424" y="665" type="curve" smooth="yes"/>
      <point x="488" y="665"/>
      <point x="526" y="654"/>
      <point x="588" y="631" type="curve" smooth="yes"/>
      <point x="604" y="625"/>
      <point x="622" y="617"/>
      <point x="637" y="629" type="curve" smooth="yes"/>
      <point x="642" y="633"/>
      <point x="660" y="633"/>
      <point x="661" y="628" type="curve" smooth="yes"/>
      <point x="670" y="589"/>
      <point x="672" y="561"/>
      <point x="671" y="538" type="curve" smooth="yes"/>
      <point x="671" y="515"/>
      <point x="669" y="496"/>
      <point x="670" y="477" type="curve" smooth="yes"/>
      <point x="667" y="464"/>
      <point x="645" y="461"/>
      <point x="640" y="469" type="curve" smooth="yes"/>
      <point x="606" y="567"/>
      <point x="535" y="628"/>
      <point x="430" y="628" type="curve" smooth="yes"/>
      <point x="268" y="628"/>
      <point x="167" y="514"/>
      <point x="167" y="338" type="curve" smooth="yes"/>
      <point x="167" y="158"/>
      <point x="282" y="22"/>
      <point x="444" y="22" type="curve" smooth="yes"/>
      <point x="512" y="22"/>
      <point x="559" y="45"/>
      <point x="607" y="88" type="curve" smooth="yes"/>
      <point x="633" y="112"/>
      <point x="641" y="122"/>
      <point x="667" y="168" type="curve" smooth="yes"/>
      <point x="669" y="177"/>
      <point x="703" y="179"/>
    </contour>
  </outline>
</glyph>
<glyph name="H" format="1">
  <advance width="788"/>
  <unicode hex="0048"/>
  <outline>
    <contour>
      <point x="768" y="25" type="curve" smooth="yes"/>
      <point x="773" y="14"/>
      <point x="768" y="-3"/>
      <point x="756" y="-3" type="curve" smooth="yes"/>
      <point x="686" y="-1"/>
      <point x="607" y="-3"/>
      <point x="472" y="-3" type="curve" smooth="yes"/>
      <point x="464" y="-3"/>
      <point x="460" y="0"/>
      <point x="459" y="6" type="curve" smooth="yes"/>
      <point x="455" y="18"/>
      <point x="460" y="32"/>
      <point x="471" y="32" type="curve" smooth="yes"/>
      <point x="495" y="32" type="line" smooth="yes"/>
      <point x="548" y="32"/>
      <point x="572" y="48"/>
      <point x="572" y="99" type="curve" smooth="yes"/>
      <point x="572" y="145"/>
      <point x="572" y="110"/>
      <point x="572" y="286" type="curve" smooth="yes"/>
      <point x="571" y="296"/>
      <point x="564" y="304"/>
      <point x="553" y="304" type="curve" smooth="yes"/>
      <point x="455" y="300"/>
      <point x="326" y="301"/>
      <point x="233" y="304" type="curve" smooth="yes"/>
      <point x="228" y="304"/>
      <point x="215" y="295"/>
      <point x="215" y="279" type="curve" smooth="yes"/>
      <point x="215" y="99" type="line" smooth="yes"/>
      <point x="215" y="46"/>
      <point x="231" y="33"/>
      <point x="286" y="33" type="curve" smooth="yes"/>
      <point x="291" y="33" type="line"/>
      <point x="296" y="33" type="line" smooth="yes"/>
      <point x="310" y="35"/>
      <point x="316" y="0"/>
      <point x="296" y="-3" type="curve" smooth="yes"/>
      <point x="232" y="-1"/>
      <point x="105" y="-3"/>
      <point x="42" y="-3" type="curve" smooth="yes"/>
      <point x="36" y="-3"/>
      <point x="29" y="-3"/>
      <point x="26" y="4" type="curve" smooth="yes"/>
      <point x="23" y="13"/>
      <point x="22" y="26"/>
      <point x="31" y="32" type="curve" smooth="yes"/>
      <point x="41" y="34"/>
      <point x="47" y="33"/>
      <point x="56" y="33" type="curve" smooth="yes"/>
      <point x="102" y="36"/>
      <point x="117" y="50"/>
      <point x="117" y="99" type="curve" smooth="yes"/>
      <point x="117" y="549" type="line" smooth="yes"/>
      <point x="117" y="603"/>
      <point x="100" y="615"/>
      <point x="49" y="618" type="curve" smooth="yes"/>
      <point x="41" y="622"/>
      <point x="41" y="651"/>
      <point x="51" y="650" type="curve" smooth="yes"/>
      <point x="116" y="647"/>
      <point x="235" y="647"/>
      <point x="292" y="650" type="curve" smooth="yes"/>
      <point x="296" y="650"/>
      <point x="299" y="648"/>
      <point x="302" y="646" type="curve" smooth="yes"/>
      <point x="307" y="641"/>
      <point x="305" y="632"/>
      <point x="303" y="624" type="curve" smooth="yes"/>
      <point x="302" y="619"/>
      <point x="299" y="619"/>
      <point x="291" y="618" type="curve" smooth="yes"/>
      <point x="232" y="618"/>
      <point x="215" y="597"/>
      <point x="215" y="549" type="curve" smooth="yes"/>
      <point x="215" y="486"/>
      <point x="215" y="430"/>
      <point x="215" y="366" type="curve" smooth="yes"/>
      <point x="215" y="361"/>
      <point x="220" y="351"/>
      <point x="233" y="351" type="curve" smooth="yes"/>
      <point x="315" y="349"/>
      <point x="431" y="349"/>
      <point x="542" y="351" type="curve" smooth="yes"/>
      <point x="550" y="351"/>
      <point x="572" y="358"/>
      <point x="572" y="367" type="curve" smooth="yes"/>
      <point x="573" y="428"/>
      <point x="572" y="489"/>
      <point x="572" y="549" type="curve" smooth="yes"/>
      <point x="572" y="596"/>
      <point x="556" y="618"/>
      <point x="495" y="618" type="curve" smooth="yes"/>
      <point x="475" y="618" type="line" smooth="yes"/>
      <point x="465" y="620"/>
      <point x="465" y="635"/>
      <point x="468" y="644" type="curve" smooth="yes"/>
      <point x="470" y="648"/>
      <point x="472" y="653"/>
      <point x="486" y="653" type="curve" smooth="yes"/>
      <point x="559" y="655"/>
      <point x="677" y="648"/>
      <point x="737" y="650" type="curve" smooth="yes"/>
      <point x="752" y="651"/>
      <point x="755" y="632"/>
      <point x="750" y="622" type="curve" smooth="yes"/>
      <point x="748" y="617"/>
      <point x="740" y="617"/>
      <point x="736" y="617" type="curve" smooth="yes"/>
      <point x="687" y="613"/>
      <point x="671" y="597"/>
      <point x="670" y="549" type="curve" smooth="yes"/>
      <point x="666" y="397"/>
      <point x="670" y="196"/>
      <point x="670" y="99" type="curve" smooth="yes"/>
      <point x="670" y="52"/>
      <point x="687" y="33"/>
      <point x="746" y="33" type="curve" smooth="yes"/>
      <point x="753" y="33"/>
      <point x="765" y="33"/>
    </contour>
  </outline>
</glyph>
<glyph name="P" format="1">
  <advance width="577"/>
  <unicode hex="0050"/>
  <outline>
    <contour>
      <point x="537" y="472" type="curve" smooth="yes"/>
      <point x="537" y="347"/>
      <point x="445" y="269"/>
      <point x="288" y="269" type="curve" smooth="yes"/>
      <point x="264" y="269"/>
      <point x="257" y="271"/>
      <point x="238" y="274" type="curve" smooth="yes"/>
      <point x="232" y="275"/>
      <point x="229" y="261"/>
      <point x="228" y="252" type="curve" smooth="yes"/>
      <point x="228" y="99" type="line" smooth="yes"/>
      <point x="228" y="45"/>
      <point x="245" y="36"/>
      <point x="305" y="37" type="curve" smooth="yes"/>
      <point x="318" y="37"/>
      <point x="327" y="40"/>
      <point x="340" y="37" type="curve" smooth="yes"/>
      <point x="357" y="32"/>
      <point x="353" y="-8"/>
      <point x="339" y="-5" type="curve" smooth="yes"/>
      <point x="261" y="-2"/>
      <point x="132" y="-2"/>
      <point x="61" y="-4" type="curve" smooth="yes"/>
      <point x="47" y="-4"/>
      <point x="45" y="-1"/>
      <point x="43" y="2" type="curve" smooth="yes"/>
      <point x="41" y="6"/>
      <point x="40" y="10"/>
      <point x="40" y="15" type="curve" smooth="yes"/>
      <point x="41" y="34"/>
      <point x="55" y="37"/>
      <point x="70" y="37" type="curve" smooth="yes"/>
      <point x="117" y="37"/>
      <point x="131" y="40"/>
      <point x="131" y="78" type="curve" smooth="yes"/>
      <point x="131" y="539" type="line" smooth="yes"/>
      <point x="131" y="603"/>
      <point x="123" y="621"/>
      <point x="83" y="620" type="curve" smooth="yes"/>
      <point x="33" y="619" type="line" smooth="yes"/>
      <point x="29" y="618"/>
      <point x="26" y="626"/>
      <point x="25" y="633" type="curve" smooth="yes"/>
      <point x="25" y="641"/>
      <point x="27" y="650"/>
      <point x="33" y="650" type="curve" smooth="yes"/>
      <point x="113" y="660"/>
      <point x="185" y="659"/>
      <point x="263" y="659" type="curve" smooth="yes"/>
      <point x="333" y="659"/>
      <point x="357" y="656"/>
      <point x="396" y="646" type="curve" smooth="yes"/>
      <point x="483" y="623"/>
      <point x="537" y="555"/>
    </contour>
    <contour>
      <point x="431" y="475" type="curve" smooth="yes"/>
      <point x="431" y="539"/>
      <point x="405" y="588"/>
      <point x="363" y="610" type="curve" smooth="yes"/>
      <point x="323" y="632"/>
      <point x="282" y="633"/>
      <point x="238" y="627" type="curve" smooth="yes"/>
      <point x="230" y="626"/>
      <point x="228" y="612"/>
      <point x="228" y="604" type="curve" smooth="yes"/>
      <point x="228" y="322" type="line" smooth="yes"/>
      <point x="228" y="313"/>
      <point x="235" y="307"/>
      <point x="242" y="305" type="curve" smooth="yes"/>
      <point x="258" y="302"/>
      <point x="264" y="301"/>
      <point x="281" y="301" type="curve" smooth="yes"/>
      <point x="384" y="301"/>
      <point x="431" y="371"/>
    </contour>
  </outline>
</glyph>
<glyph name="Q" format="1">
  <advance width="822"/>
  <unicode hex="0051"/>
  <outline>
    <contour>
      <point x="806" y="-172" type="curve" smooth="yes"/>
      <point x="817" y="-175"/>
      <point x="795" y="-202"/>
      <point x="784" y="-205" type="curve" smooth="yes"/>
      <point x="765" y="-209"/>
      <point x="752" y="-211"/>
      <point x="733" y="-211" type="curve" smooth="yes"/>
      <point x="641" y="-211"/>
      <point x="563" y="-158"/>
      <point x="496" y="-101" type="curve" smooth="yes"/>
      <point x="459" y="-70"/>
      <point x="441" y="-54"/>
      <point x="426" y="-43" type="curve" smooth="yes"/>
      <point x="411" y="-32"/>
      <point x="399" y="-27"/>
      <point x="375" y="-18" type="curve"/>
      <point x="175" y="0"/>
      <point x="45" y="135"/>
      <point x="45" y="314" type="curve" smooth="yes"/>
      <point x="45" y="514"/>
      <point x="198" y="667"/>
      <point x="412" y="667" type="curve" smooth="yes"/>
      <point x="622" y="667"/>
      <point x="759" y="527"/>
      <point x="759" y="339" type="curve" smooth="yes"/>
      <point x="759" y="182"/>
      <point x="660" y="49"/>
      <point x="511" y="0" type="curve" smooth="yes"/>
      <point x="508" y="-1"/>
      <point x="503" y="-6"/>
      <point x="510" y="-9" type="curve" smooth="yes"/>
      <point x="561" y="-29"/>
      <point x="606" y="-65"/>
      <point x="647" y="-100" type="curve" smooth="yes"/>
      <point x="708" y="-152"/>
      <point x="742" y="-169"/>
    </contour>
    <contour>
      <point x="651" y="309" type="curve" smooth="yes"/>
      <point x="651" y="497"/>
      <point x="549" y="631"/>
      <point x="384" y="631" type="curve" smooth="yes"/>
      <point x="244" y="631"/>
      <point x="153" y="510"/>
      <point x="153" y="338" type="curve" smooth="yes"/>
      <point x="153" y="156"/>
      <point x="267" y="17"/>
      <point x="426" y="17" type="curve" smooth="yes"/>
      <point x="577" y="17"/>
      <point x="651" y="176"/>
    </contour>
  </outline>
</glyph>
<glyph name="R" format="1">
  <advance width="696"/>
  <unicode hex="0052"/>
  <outline>
    <contour>
      <point x="679" y="-9" type="curve"/>
      <point x="673" y="-13" type="line"/>
      <point x="663" y="-13"/>
      <point x="653" y="-15"/>
      <point x="643" y="-15" type="curve" smooth="yes"/>
      <point x="555" y="-15"/>
      <point x="521" y="16"/>
      <point x="495" y="46" type="curve" smooth="yes"/>
      <point x="463" y="83"/>
      <point x="436" y="125"/>
      <point x="410" y="166" type="curve" smooth="yes"/>
      <point x="396" y="189"/>
      <point x="383" y="212"/>
      <point x="370" y="236" type="curve" smooth="yes"/>
      <point x="364" y="246"/>
      <point x="354" y="270"/>
      <point x="340" y="269" type="curve" smooth="yes"/>
      <point x="307" y="265"/>
      <point x="278" y="261"/>
      <point x="244" y="263" type="curve" smooth="yes"/>
      <point x="235" y="263"/>
      <point x="224" y="255"/>
      <point x="224" y="247" type="curve" smooth="yes"/>
      <point x="224" y="196"/>
      <point x="224" y="151"/>
      <point x="225" y="99" type="curve" smooth="yes"/>
      <point x="227" y="45"/>
      <point x="241" y="34"/>
      <point x="300" y="34" type="curve" smooth="yes"/>
      <point x="311" y="35"/>
      <point x="329" y="41"/>
      <point x="334" y="27" type="curve" smooth="yes"/>
      <point x="335" y="22"/>
      <point x="336" y="11"/>
      <point x="335" y="5" type="curve" smooth="yes"/>
      <point x="334" y="1"/>
      <point x="323" y="-3"/>
      <point x="321" y="-3" type="curve" smooth="yes"/>
      <point x="245" y="-1"/>
      <point x="121" y="-4"/>
      <point x="33" y="-5" type="curve" smooth="yes"/>
      <point x="24" y="-2"/>
      <point x="24" y="-3"/>
      <point x="20" y="5" type="curve" smooth="yes"/>
      <point x="17" y="11"/>
      <point x="18" y="20"/>
      <point x="20" y="26" type="curve" smooth="yes"/>
      <point x="24" y="36"/>
      <point x="41" y="34"/>
      <point x="50" y="34" type="curve" smooth="yes"/>
      <point x="109" y="34"/>
      <point x="126" y="45"/>
      <point x="126" y="99" type="curve" smooth="yes"/>
      <point x="126" y="134" type="line"/>
      <point x="126" y="515" type="line" smooth="yes"/>
      <point x="126" y="612"/>
      <point x="124" y="617"/>
      <point x="30" y="618" type="curve" smooth="yes"/>
      <point x="21" y="618"/>
      <point x="16" y="644"/>
      <point x="30" y="651" type="curve"/>
      <point x="40" y="652" type="line" smooth="yes"/>
      <point x="105" y="659"/>
      <point x="221" y="659"/>
      <point x="278" y="659" type="curve" smooth="yes"/>
      <point x="399" y="659"/>
      <point x="438" y="641"/>
      <point x="488" y="596" type="curve" smooth="yes"/>
      <point x="523" y="564"/>
      <point x="543" y="519"/>
      <point x="543" y="471" type="curve" smooth="yes"/>
      <point x="543" y="397"/>
      <point x="503" y="331"/>
      <point x="443" y="300" type="curve" smooth="yes"/>
      <point x="435" y="297"/>
      <point x="437" y="293"/>
      <point x="441" y="287" type="curve" smooth="yes"/>
      <point x="464" y="250"/>
      <point x="480" y="221"/>
      <point x="500" y="191" type="curve" smooth="yes"/>
      <point x="556" y="107" type="line" smooth="yes"/>
      <point x="578" y="73"/>
      <point x="587" y="65"/>
      <point x="619" y="40" type="curve" smooth="yes"/>
      <point x="633" y="29"/>
      <point x="648" y="21"/>
      <point x="673" y="16" type="curve"/>
      <point x="681" y="10"/>
      <point x="685" y="0"/>
    </contour>
    <contour>
      <point x="435" y="464" type="curve" smooth="yes"/>
      <point x="435" y="560"/>
      <point x="401" y="628"/>
      <point x="268" y="628" type="curve" smooth="yes"/>
      <point x="252" y="628"/>
      <point x="224" y="624"/>
      <point x="224" y="605" type="curve" smooth="yes"/>
      <point x="224" y="320" type="line" smooth="yes"/>
      <point x="224" y="305"/>
      <point x="230" y="300"/>
      <point x="234" y="300" type="curve" smooth="yes"/>
      <point x="265" y="298"/>
      <point x="308" y="296"/>
      <point x="332" y="304" type="curve" smooth="yes"/>
      <point x="400" y="327"/>
      <point x="435" y="394"/>
    </contour>
  </outline>
</glyph>
<glyph name="W" format="1">
  <advance width="1086"/>
  <unicode hex="0057"/>
  <outline>
    <contour>
      <point x="1067" y="636" type="curve" smooth="yes"/>
      <point x="1067" y="628"/>
      <point x="1064" y="620"/>
      <point x="1055" y="620" type="curve" smooth="yes"/>
      <point x="997" y="620"/>
      <point x="981" y="609"/>
      <point x="951" y="530" type="curve" smooth="yes"/>
      <point x="745" y="-10" type="line" smooth="yes"/>
      <point x="741" y="-21"/>
      <point x="685" y="-20"/>
      <point x="680" y="-12" type="curve" smooth="yes"/>
      <point x="561" y="273" type="line" smooth="yes"/>
      <point x="559" y="279"/>
      <point x="552" y="287"/>
      <point x="544" y="268" type="curve" smooth="yes"/>
      <point x="430" y="-12" type="line" smooth="yes"/>
      <point x="425" y="-24"/>
      <point x="368" y="-22"/>
      <point x="363" y="-9" type="curve" smooth="yes"/>
      <point x="159" y="515" type="line" smooth="yes"/>
      <point x="122" y="610"/>
      <point x="113" y="613"/>
      <point x="36" y="615" type="curve" smooth="yes"/>
      <point x="32" y="615"/>
      <point x="26" y="615"/>
      <point x="21" y="618" type="curve" smooth="yes"/>
      <point x="15" y="621"/>
      <point x="14" y="635"/>
      <point x="17" y="643" type="curve" smooth="yes"/>
      <point x="18" y="648"/>
      <point x="29" y="650"/>
      <point x="36" y="650" type="curve" smooth="yes"/>
      <point x="70" y="652"/>
      <point x="201" y="655"/>
      <point x="289" y="651" type="curve" smooth="yes"/>
      <point x="300" y="651"/>
      <point x="295" y="620"/>
      <point x="289" y="618" type="curve" smooth="yes"/>
      <point x="280" y="618" type="line" smooth="yes"/>
      <point x="233" y="618"/>
      <point x="230" y="611"/>
      <point x="230" y="590" type="curve" smooth="yes"/>
      <point x="230" y="580"/>
      <point x="233" y="567"/>
      <point x="249" y="527" type="curve" smooth="yes"/>
      <point x="407" y="130" type="line" smooth="yes"/>
      <point x="409" y="124"/>
      <point x="420" y="109"/>
      <point x="430" y="135" type="curve" smooth="yes"/>
      <point x="519" y="354" type="line" smooth="yes"/>
      <point x="523" y="363"/>
      <point x="521" y="369"/>
      <point x="518" y="377" type="curve" smooth="yes"/>
      <point x="447" y="548" type="line" smooth="yes"/>
      <point x="421" y="611"/>
      <point x="413" y="616"/>
      <point x="339" y="619" type="curve" smooth="yes"/>
      <point x="331" y="621"/>
      <point x="326" y="651"/>
      <point x="340" y="651" type="curve" smooth="yes"/>
      <point x="448" y="654"/>
      <point x="612" y="652"/>
      <point x="764" y="651" type="curve" smooth="yes"/>
      <point x="780" y="651"/>
      <point x="773" y="620"/>
      <point x="766" y="618" type="curve" smooth="yes"/>
      <point x="693" y="617"/>
      <point x="682" y="610"/>
      <point x="656" y="547" type="curve" smooth="yes"/>
      <point x="606" y="425" type="line" smooth="yes"/>
      <point x="604" y="419"/>
      <point x="601" y="408"/>
      <point x="606" y="397" type="curve" smooth="yes"/>
      <point x="649" y="293"/>
      <point x="721" y="122"/>
      <point x="721" y="122" type="curve" smooth="yes"/>
      <point x="724" y="114"/>
      <point x="735" y="115"/>
      <point x="742" y="133" type="curve" smooth="yes"/>
      <point x="895" y="536" type="line" smooth="yes"/>
      <point x="925" y="614"/>
      <point x="918" y="618"/>
      <point x="849" y="621" type="curve" smooth="yes"/>
      <point x="836" y="623"/>
      <point x="842" y="653"/>
      <point x="853" y="651" type="curve" smooth="yes"/>
      <point x="901" y="649"/>
      <point x="991" y="650"/>
      <point x="1056" y="652" type="curve" smooth="yes"/>
      <point x="1062" y="652"/>
      <point x="1066" y="644"/>
    </contour>
    <contour>
      <point x="618" y="604" type="curve" smooth="yes"/>
      <point x="618" y="612"/>
      <point x="611" y="618"/>
      <point x="591" y="618" type="curve" smooth="yes"/>
      <point x="582" y="617"/>
      <point x="562" y="616"/>
      <point x="549" y="618" type="curve" smooth="yes"/>
      <point x="527" y="618"/>
      <point x="522" y="613"/>
      <point x="522" y="605" type="curve" smooth="yes"/>
      <point x="522" y="596"/>
      <point x="526" y="587"/>
      <point x="529" y="578" type="curve" smooth="yes"/>
      <point x="533" y="571"/>
      <point x="536" y="563"/>
      <point x="567" y="491" type="curve" smooth="yes"/>
      <point x="570" y="485"/>
      <point x="578" y="500"/>
      <point x="579" y="502" type="curve" smooth="yes"/>
      <point x="605" y="565" type="line" smooth="yes"/>
      <point x="616" y="591"/>
      <point x="618" y="598"/>
    </contour>
  </outline>
</glyph>
<glyph name="backslash" format="1">
  <advance width="479"/>
  <unicode hex="005C"/>
  <outline>
    <contour>
      <point x="436" y="9" type="line" smooth="yes"/>
      <point x="440" y="1"/>
      <point x="446" y="-12"/>
      <point x="428" y="-14" type="curve" smooth="yes"/>
      <point x="386" y="-19" type="line" smooth="yes"/>
      <point x="372" y="-21"/>
      <point x="370" y="-14"/>
      <point x="364" y="-3" type="curve" smooth="yes"/>
      <point x="40" y="659" type="line" smooth="yes"/>
      <point x="33" y="673"/>
      <point x="56" y="674"/>
      <point x="69" y="674" type="curve" smooth="yes"/>
      <point x="90" y="674" type="line" smooth="yes"/>
      <point x="107" y="674"/>
      <point x="108" y="677"/>
      <point x="117" y="659" type="curve" smooth="yes"/>
    </contour>
  </outline>
</glyph>
<glyph name="grave" format="1">
  <advance width="348"/>
  <unicode hex="0060"/>
  <outline>
    <contour>
      <point x="229" y="487" type="curve" smooth="yes"/>
      <point x="230" y="474"/>
      <point x="212" y="473"/>
      <point x="204" y="480" type="curve" smooth="yes"/>
      <point x="172" y="522"/>
      <point x="113" y="591"/>
      <point x="70" y="638" type="curve" smooth="yes"/>
      <point x="64" y="644"/>
      <point x="72" y="657"/>
      <point x="84" y="657" type="curve" smooth="yes"/>
      <point x="161" y="658" type="line" smooth="yes"/>
      <point x="170" y="658"/>
      <point x="175" y="658"/>
      <point x="180" y="650" type="curve" smooth="yes"/>
      <point x="197" y="605"/>
      <point x="219" y="530"/>
    </contour>
  </outline>
</glyph>
<glyph name="e" format="1">
  <advance width="428"/>
  <unicode hex="0065"/>
  <outline>
    <contour>
      <point x="404" y="276" type="curve" smooth="yes"/>
      <point x="403" y="269"/>
      <point x="396" y="267"/>
      <point x="390" y="267" type="curve" smooth="yes"/>
      <point x="313" y="264"/>
      <point x="186" y="266"/>
      <point x="122" y="267" type="curve" smooth="yes"/>
      <point x="114" y="267"/>
      <point x="104" y="264"/>
      <point x="103" y="257" type="curve" smooth="yes"/>
      <point x="101" y="246"/>
      <point x="101" y="240"/>
      <point x="101" y="227" type="curve" smooth="yes"/>
      <point x="101" y="124"/>
      <point x="166" y="49"/>
      <point x="251" y="49" type="curve" smooth="yes"/>
      <point x="299" y="49"/>
      <point x="336" y="67"/>
      <point x="375" y="113" type="curve" smooth="yes"/>
      <point x="378" y="117"/>
      <point x="385" y="119"/>
      <point x="390" y="118" type="curve" smooth="yes"/>
      <point x="398" y="116"/>
      <point x="404" y="104"/>
      <point x="400" y="97" type="curve" smooth="yes"/>
      <point x="381" y="75"/>
      <point x="355" y="49"/>
      <point x="329" y="28" type="curve" smooth="yes"/>
      <point x="295" y="2"/>
      <point x="251" y="-15"/>
      <point x="211" y="-15" type="curve" smooth="yes"/>
      <point x="105" y="-15"/>
      <point x="26" y="81"/>
      <point x="26" y="202" type="curve" smooth="yes"/>
      <point x="26" y="332"/>
      <point x="113" y="429"/>
      <point x="231" y="429" type="curve" smooth="yes"/>
      <point x="301" y="429"/>
      <point x="346" y="401"/>
      <point x="375" y="341" type="curve" smooth="yes"/>
      <point x="383" y="324" type="line" smooth="yes"/>
      <point x="388" y="312"/>
      <point x="394" y="303"/>
      <point x="403" y="292" type="curve" smooth="yes"/>
      <point x="405" y="286"/>
      <point x="405" y="283"/>
    </contour>
    <contour>
      <point x="302" y="311" type="curve" smooth="yes"/>
      <point x="287" y="366"/>
      <point x="252" y="398"/>
      <point x="209" y="398" type="curve" smooth="yes"/>
      <point x="166" y="398"/>
      <point x="131" y="367"/>
      <point x="112" y="307" type="curve" smooth="yes"/>
      <point x="110" y="302"/>
      <point x="124" y="299"/>
      <point x="128" y="299" type="curve" smooth="yes"/>
      <point x="278" y="299" type="line" smooth="yes"/>
      <point x="286" y="299"/>
      <point x="304" y="302"/>
    </contour>
  </outline>
</glyph>
<glyph name="g" format="1">
  <advance width="483"/>
  <unicode hex="0067"/>
  <outline>
    <contour>
      <point x="451" y="-70" type="curve" smooth="yes"/>
      <point x="451" y="-172"/>
      <point x="331" y="-250"/>
      <point x="188" y="-250" type="curve" smooth="yes"/>
      <point x="121" y="-250"/>
      <point x="27" y="-209"/>
      <point x="27" y="-140" type="curve" smooth="yes"/>
      <point x="27" y="-91"/>
      <point x="52" y="-66"/>
      <point x="88" y="-42" type="curve" smooth="yes"/>
      <point x="96" y="-36"/>
      <point x="104" y="-32"/>
      <point x="112" y="-27" type="curve" smooth="yes"/>
      <point x="118" y="-22"/>
      <point x="122" y="-12"/>
      <point x="117" y="-10" type="curve" smooth="yes"/>
      <point x="63" y="9"/>
      <point x="47" y="36"/>
      <point x="47" y="64" type="curve" smooth="yes"/>
      <point x="47" y="82"/>
      <point x="67" y="95"/>
      <point x="89" y="107" type="curve" smooth="yes"/>
      <point x="105" y="116"/>
      <point x="110" y="120"/>
      <point x="120" y="125" type="curve" smooth="yes"/>
      <point x="122" y="127"/>
      <point x="137" y="135"/>
      <point x="132" y="138" type="curve" smooth="yes"/>
      <point x="82" y="163"/>
      <point x="53" y="206"/>
      <point x="53" y="262" type="curve" smooth="yes"/>
      <point x="53" y="357"/>
      <point x="127" y="429"/>
      <point x="221" y="429" type="curve" smooth="yes"/>
      <point x="264" y="429"/>
      <point x="301" y="415"/>
      <point x="327" y="387" type="curve"/>
      <point x="335" y="387" type="line" smooth="yes"/>
      <point x="341" y="387"/>
      <point x="400" y="394"/>
      <point x="426" y="398" type="curve" smooth="yes"/>
      <point x="440" y="400"/>
      <point x="444" y="399"/>
      <point x="445" y="384" type="curve" smooth="yes"/>
      <point x="447" y="367"/>
      <point x="449" y="352"/>
      <point x="448" y="335" type="curve" smooth="yes"/>
      <point x="447" y="329"/>
      <point x="446" y="322"/>
      <point x="438" y="322" type="curve" smooth="yes"/>
      <point x="432" y="322"/>
      <point x="397" y="326"/>
      <point x="376" y="329" type="curve" smooth="yes"/>
      <point x="373" y="330"/>
      <point x="365" y="324"/>
      <point x="366" y="321" type="curve" smooth="yes"/>
      <point x="374" y="301"/>
      <point x="375" y="290"/>
      <point x="375" y="271" type="curve" smooth="yes"/>
      <point x="375" y="181"/>
      <point x="303" y="119"/>
      <point x="206" y="119" type="curve" smooth="yes"/>
      <point x="192" y="119"/>
      <point x="179" y="121"/>
      <point x="165" y="125" type="curve"/>
      <point x="158" y="115"/>
      <point x="146" y="107"/>
      <point x="137" y="99" type="curve" smooth="yes"/>
      <point x="126" y="90"/>
      <point x="118" y="82"/>
      <point x="118" y="73" type="curve" smooth="yes"/>
      <point x="118" y="63"/>
      <point x="118" y="46"/>
      <point x="242" y="45" type="curve" smooth="yes"/>
      <point x="302" y="44"/>
      <point x="354" y="43"/>
      <point x="400" y="22" type="curve" smooth="yes"/>
      <point x="436" y="6"/>
      <point x="451" y="-27"/>
    </contour>
    <contour>
      <point x="301" y="265" type="curve" smooth="yes"/>
      <point x="301" y="342"/>
      <point x="261" y="396"/>
      <point x="209" y="396" type="curve" smooth="yes"/>
      <point x="162" y="396"/>
      <point x="127" y="348"/>
      <point x="127" y="284" type="curve" smooth="yes"/>
      <point x="127" y="202"/>
      <point x="167" y="154"/>
      <point x="217" y="154" type="curve" smooth="yes"/>
      <point x="266" y="154"/>
      <point x="301" y="194"/>
    </contour>
    <contour>
      <point x="392" y="-97" type="curve" smooth="yes"/>
      <point x="392" y="-52"/>
      <point x="366" y="-31"/>
      <point x="281" y="-24" type="curve" smooth="yes"/>
      <point x="237" y="-21"/>
      <point x="209" y="-23"/>
      <point x="165" y="-21" type="curve"/>
      <point x="163" y="-25"/>
      <point x="158" y="-30"/>
      <point x="152" y="-36" type="curve" smooth="yes"/>
      <point x="134" y="-54"/>
      <point x="100" y="-87"/>
      <point x="100" y="-113" type="curve" smooth="yes"/>
      <point x="99" y="-165"/>
      <point x="170" y="-199"/>
      <point x="243" y="-199" type="curve" smooth="yes"/>
      <point x="307" y="-199"/>
      <point x="392" y="-148"/>
    </contour>
  </outline>
</glyph>
<glyph name="o" format="1">
  <advance width="503"/>
  <unicode hex="006F"/>
  <outline>
    <contour>
      <point x="478" y="206" type="curve" smooth="yes"/>
      <point x="478" y="82"/>
      <point x="379" y="-15"/>
      <point x="253" y="-15" type="curve" smooth="yes"/>
      <point x="123" y="-15"/>
      <point x="25" y="81"/>
      <point x="25" y="207" type="curve" smooth="yes"/>
      <point x="25" y="335"/>
      <point x="122" y="430"/>
      <point x="250" y="430" type="curve" smooth="yes"/>
      <point x="379" y="430"/>
      <point x="479" y="333"/>
    </contour>
    <contour>
      <point x="389" y="182" type="curve" smooth="yes"/>
      <point x="389" y="298"/>
      <point x="318" y="394"/>
      <point x="236" y="394" type="curve" smooth="yes"/>
      <point x="166" y="394"/>
      <point x="112" y="329"/>
      <point x="112" y="239" type="curve" smooth="yes"/>
      <point x="112" y="117"/>
      <point x="182" y="22"/>
      <point x="265" y="22" type="curve" smooth="yes"/>
      <point x="335" y="22"/>
      <point x="389" y="88"/>
    </contour>
  </outline>
</glyph>
<glyph name="t" format="1">
  <advance width="319"/>
  <unicode hex="0074"/>
  <outline>
    <contour>
      <point x="294" y="80" type="curve" smooth="yes"/>
      <point x="268" y="22"/>
      <point x="227" y="-11"/>
      <point x="177" y="-11" type="curve" smooth="yes"/>
      <point x="114" y="-11"/>
      <point x="70" y="41"/>
      <point x="70" y="114" type="curve" smooth="yes"/>
      <point x="70" y="155" type="line"/>
      <point x="70" y="355" type="line" smooth="yes"/>
      <point x="70" y="358"/>
      <point x="67" y="365"/>
      <point x="64" y="366" type="curve" smooth="yes"/>
      <point x="56" y="366"/>
      <point x="50" y="366"/>
      <point x="44" y="366" type="curve" smooth="yes"/>
      <point x="38" y="366"/>
      <point x="32" y="367"/>
      <point x="24" y="369" type="curve"/>
      <point x="21" y="374"/>
      <point x="19" y="385"/>
      <point x="21" y="390" type="curve" smooth="yes"/>
      <point x="22" y="392"/>
      <point x="27" y="396"/>
      <point x="29" y="397" type="curve" smooth="yes"/>
      <point x="68" y="417"/>
      <point x="98" y="459"/>
      <point x="121" y="524" type="curve" smooth="yes"/>
      <point x="122" y="532"/>
      <point x="147" y="537"/>
      <point x="146" y="524" type="curve" smooth="yes"/>
      <point x="145" y="501"/>
      <point x="144" y="459"/>
      <point x="146" y="436" type="curve" smooth="yes"/>
      <point x="147" y="430"/>
      <point x="154" y="423"/>
      <point x="158" y="423" type="curve" smooth="yes"/>
      <point x="269" y="423" type="line" smooth="yes"/>
      <point x="277" y="423"/>
      <point x="285" y="419"/>
      <point x="281" y="407" type="curve" smooth="yes"/>
      <point x="280" y="397"/>
      <point x="276" y="383"/>
      <point x="272" y="374" type="curve" smooth="yes"/>
      <point x="269" y="369"/>
      <point x="268" y="366"/>
      <point x="256" y="366" type="curve" smooth="yes"/>
      <point x="161" y="368" type="line" smooth="yes"/>
      <point x="155" y="368"/>
      <point x="147" y="361"/>
      <point x="146" y="356" type="curve" smooth="yes"/>
      <point x="146" y="179" type="line" smooth="yes"/>
      <point x="146" y="75"/>
      <point x="163" y="47"/>
      <point x="210" y="47" type="curve" smooth="yes"/>
      <point x="230" y="47"/>
      <point x="250" y="62"/>
      <point x="270" y="100" type="curve" smooth="yes"/>
      <point x="272" y="106"/>
      <point x="287" y="106"/>
      <point x="293" y="99" type="curve" smooth="yes"/>
      <point x="297" y="95"/>
      <point x="295" y="83"/>
    </contour>
  </outline>
</glyph>
<glyph name="bar" format="1">
  <advance width="534"/>
  <unicode hex="007C"/>
  <outline>
    <contour>
      <point x="301" y="422" type="line" smooth="yes"/>
      <point x="301" y="302"/>
      <point x="304" y="140"/>
      <point x="300" y="0" type="curve" smooth="yes"/>
      <point x="300" y="-15"/>
      <point x="295" y="-22"/>
      <point x="278" y="-22" type="curve" smooth="yes"/>
      <point x="271" y="-21"/>
      <point x="262" y="-21"/>
      <point x="253" y="-22" type="curve" smooth="yes"/>
      <point x="237" y="-22"/>
      <point x="236" y="-11"/>
      <point x="236" y="5" type="curve" smooth="yes"/>
      <point x="236" y="835" type="line" smooth="yes"/>
      <point x="236" y="853"/>
      <point x="241" y="860"/>
      <point x="259" y="860" type="curve" smooth="yes"/>
      <point x="268" y="858"/>
      <point x="277" y="856"/>
      <point x="288" y="858" type="curve" smooth="yes"/>
      <point x="307" y="858"/>
      <point x="301" y="851"/>
      <point x="301" y="833" type="curve" smooth="yes"/>
    </contour>
  </outline>
</glyph>
<glyph name="asciitilde" format="1">
  <advance width="567"/>
  <unicode hex="007E"/>
  <outline>
    <contour>
      <point x="547" y="407" type="curve" smooth="yes"/>
      <point x="541" y="311"/>
      <point x="483" y="241"/>
      <point x="406" y="241" type="curve" smooth="yes"/>
      <point x="355" y="241"/>
      <point x="307" y="264"/>
      <point x="262" y="288" type="curve" smooth="yes"/>
      <point x="229" y="305"/>
      <point x="181" y="336"/>
      <point x="142" y="336" type="curve" smooth="yes"/>
      <point x="98" y="336"/>
      <point x="64" y="303"/>
      <point x="57" y="249" type="curve" smooth="yes"/>
      <point x="56" y="242"/>
      <point x="49" y="237"/>
      <point x="42" y="238" type="curve" smooth="yes"/>
      <point x="34" y="239"/>
      <point x="23" y="242"/>
      <point x="24" y="253" type="curve" smooth="yes"/>
      <point x="28" y="347"/>
      <point x="90" y="415"/>
      <point x="168" y="415" type="curve" smooth="yes"/>
      <point x="218" y="415"/>
      <point x="262" y="392"/>
      <point x="304" y="369" type="curve" smooth="yes"/>
      <point x="340" y="349"/>
      <point x="383" y="323"/>
      <point x="425" y="323" type="curve" smooth="yes"/>
      <point x="470" y="323"/>
      <point x="501" y="351"/>
      <point x="511" y="406" type="curve" smooth="yes"/>
      <point x="512" y="413"/>
      <point x="517" y="419"/>
      <point x="523" y="419" type="curve" smooth="yes"/>
      <point x="534" y="418" type="line" smooth="yes"/>
      <point x="543" y="417"/>
      <point x="548" y="411"/>
    </contour>
  </outline>
</glyph>
<glyph name="cent" format="1">
  <advance width="447"/>
  <unicode hex="00A2"/>
  <outline>
    <contour>
      <point x="413" y="367" type="curve" smooth="yes"/>
      <point x="413" y="346"/>
      <point x="397" y="330"/>
      <point x="374" y="330" type="curve" smooth="yes"/>
      <point x="360" y="330"/>
      <point x="350" y="335"/>
      <point x="337" y="346" type="curve" smooth="yes"/>
      <point x="328" y="355"/>
      <point x="324" y="356"/>
      <point x="320" y="345" type="curve" smooth="yes"/>
      <point x="209" y="67" type="line" smooth="yes"/>
      <point x="199" y="41"/>
      <point x="255" y="37"/>
      <point x="268" y="37" type="curve" smooth="yes"/>
      <point x="321" y="37"/>
      <point x="352" y="64"/>
      <point x="387" y="106" type="curve" smooth="yes"/>
      <point x="390" y="110"/>
      <point x="394" y="114"/>
      <point x="400" y="110" type="curve" smooth="yes"/>
      <point x="410" y="104" type="line" smooth="yes"/>
      <point x="415" y="101"/>
      <point x="414" y="93"/>
      <point x="408" y="84" type="curve" smooth="yes"/>
      <point x="361" y="16"/>
      <point x="302" y="-18"/>
      <point x="231" y="-18" type="curve" smooth="yes"/>
      <point x="212" y="-18"/>
      <point x="202" y="-16"/>
      <point x="189" y="-13" type="curve" smooth="yes"/>
      <point x="181" y="-11"/>
      <point x="176" y="-15"/>
      <point x="173" y="-23" type="curve" smooth="yes"/>
      <point x="159" y="-61"/>
      <point x="127" y="-148"/>
      <point x="116" y="-169" type="curve" smooth="yes"/>
      <point x="111" y="-181"/>
      <point x="107" y="-182"/>
      <point x="100" y="-181" type="curve" smooth="yes"/>
      <point x="85" y="-178" type="line" smooth="yes"/>
      <point x="80" y="-177"/>
      <point x="81" y="-172"/>
      <point x="82" y="-169" type="curve" smooth="yes"/>
      <point x="84" y="-165" type="line"/>
      <point x="144" y="-14" type="line" smooth="yes"/>
      <point x="148" y="-3"/>
      <point x="147" y="2"/>
      <point x="139" y="7" type="curve" smooth="yes"/>
      <point x="84" y="43"/>
      <point x="48" y="114"/>
      <point x="48" y="190" type="curve" smooth="yes"/>
      <point x="48" y="325"/>
      <point x="157" y="433"/>
      <point x="291" y="433" type="curve" smooth="yes"/>
      <point x="303" y="433"/>
      <point x="308" y="432"/>
      <point x="320" y="431" type="curve"/>
      <point x="369" y="559" type="line" smooth="yes"/>
      <point x="371" y="563"/>
      <point x="374" y="566"/>
      <point x="382" y="565" type="curve" smooth="yes"/>
      <point x="392" y="564"/>
      <point x="406" y="566"/>
      <point x="400" y="550" type="curve" smooth="yes"/>
      <point x="351" y="425" type="line"/>
      <point x="387" y="414"/>
      <point x="413" y="394"/>
    </contour>
    <contour>
      <point x="300" y="380" type="line"/>
      <point x="287" y="390"/>
      <point x="273" y="394"/>
      <point x="257" y="394" type="curve" smooth="yes"/>
      <point x="189" y="394"/>
      <point x="128" y="314"/>
      <point x="128" y="213" type="curve" smooth="yes"/>
      <point x="128" y="162"/>
      <point x="143" y="116"/>
      <point x="172" y="82" type="curve" smooth="yes"/>
      <point x="177" y="76"/>
      <point x="180" y="78"/>
      <point x="184" y="87" type="curve" smooth="yes"/>
    </contour>
  </outline>
</glyph>
<glyph name="dieresis" format="1">
  <advance width="348"/>
  <unicode hex="00A8"/>
  <outline>
    <contour>
      <point x="324" y="541" type="curve" smooth="yes"/>
      <point x="324" y="508"/>
      <point x="297" y="481"/>
      <point x="263" y="481" type="curve" smooth="yes"/>
      <point x="230" y="481"/>
      <point x="203" y="508"/>
      <point x="203" y="541" type="curve" smooth="yes"/>
      <point x="203" y="574"/>
      <point x="230" y="601"/>
      <point x="263" y="601" type="curve" smooth="yes"/>
      <point x="297" y="601"/>
      <point x="324" y="574"/>
    </contour>
    <contour>
      <point x="146" y="541" type="curve" smooth="yes"/>
      <point x="146" y="507"/>
      <point x="119" y="481"/>
      <point x="86" y="481" type="curve" smooth="yes"/>
      <point x="53" y="481"/>
      <point x="26" y="507"/>
      <point x="26" y="541" type="curve" smooth="yes"/>
      <point x="26" y="574"/>
      <point x="53" y="601"/>
      <point x="86" y="601" type="curve" smooth="yes"/>
      <point x="119" y="601"/>
      <point x="146" y="574"/>
    </contour>
  </outline>
</glyph>
<glyph name="guillemotleft" format="1">
  <advance width="371"/>
  <unicode hex="00AB"/>
  <outline>
    <contour>
      <point x="331" y="51" type="line"/>
      <point x="302" y="51" type="line"/>
      <point x="177" y="230" type="line"/>
      <point x="302" y="413" type="line"/>
      <point x="330" y="413" type="line"/>
      <point x="263" y="230" type="line"/>
    </contour>
    <contour>
      <point x="218" y="33" type="line"/>
      <point x="187" y="33" type="line"/>
      <point x="31" y="230" type="line"/>
      <point x="187" y="430" type="line"/>
      <point x="218" y="430" type="line"/>
      <point x="117" y="230" type="line"/>
      <point x="117" y="231" type="line"/>
    </contour>
  </outline>
</glyph>
<glyph name="macron" format="1">
  <advance width="349"/>
  <unicode hex="00AF"/>
  <outline>
    <contour>
      <point x="341" y="515" type="line" smooth="yes"/>
      <point x="341" y="502"/>
      <point x="333" y="500"/>
      <point x="318" y="500" type="curve" smooth="yes"/>
      <point x="26" y="500" type="line" smooth="yes"/>
      <point x="11" y="500"/>
      <point x="9" y="508"/>
      <point x="9" y="519" type="curve" smooth="yes"/>
      <point x="9" y="564" type="line" smooth="yes"/>
      <point x="9" y="574"/>
      <point x="22" y="575"/>
      <point x="30" y="575" type="curve" smooth="yes"/>
      <point x="33" y="575"/>
      <point x="37" y="575"/>
      <point x="40" y="575" type="curve" smooth="yes"/>
      <point x="321" y="575" type="line" smooth="yes"/>
      <point x="335" y="575"/>
      <point x="341" y="573"/>
      <point x="341" y="559" type="curve" smooth="yes"/>
    </contour>
  </outline>
</glyph>
<glyph name="plusminus" format="1">
  <advance width="698"/>
  <unicode hex="00B1"/>
  <outline>
    <contour>
      <point x="630" y="407" type="line" smooth="yes"/>
      <point x="630" y="389"/>
      <point x="624" y="389"/>
      <point x="606" y="389" type="curve" smooth="yes"/>
      <point x="398" y="389" type="line" smooth="yes"/>
      <point x="395" y="389"/>
      <point x="392" y="389"/>
      <point x="390" y="389" type="curve" smooth="yes"/>
      <point x="388" y="389"/>
      <point x="387" y="389"/>
      <point x="386" y="388" type="curve" smooth="yes"/>
      <point x="384" y="387"/>
      <point x="383" y="385"/>
      <point x="383" y="378" type="curve" smooth="yes"/>
      <point x="383" y="162" type="line" smooth="yes"/>
      <point x="383" y="142"/>
      <point x="382" y="142"/>
      <point x="362" y="142" type="curve" smooth="yes"/>
      <point x="352" y="139"/>
      <point x="340" y="139"/>
      <point x="332" y="142" type="curve" smooth="yes"/>
      <point x="323" y="142"/>
      <point x="319" y="143"/>
      <point x="317" y="147" type="curve" smooth="yes"/>
      <point x="317" y="148"/>
      <point x="316" y="151"/>
      <point x="316" y="153" type="curve" smooth="yes"/>
      <point x="316" y="156"/>
      <point x="317" y="159"/>
      <point x="317" y="162" type="curve" smooth="yes"/>
      <point x="317" y="376" type="line" smooth="yes"/>
      <point x="317" y="387"/>
      <point x="314" y="389"/>
      <point x="303" y="389" type="curve" smooth="yes"/>
      <point x="92" y="389" type="line" smooth="yes"/>
      <point x="75" y="389"/>
      <point x="71" y="390"/>
      <point x="71" y="408" type="curve" smooth="yes"/>
      <point x="71" y="435" type="line" smooth="yes"/>
      <point x="71" y="439"/>
      <point x="71" y="442"/>
      <point x="71" y="445" type="curve" smooth="yes"/>
      <point x="71" y="447"/>
      <point x="71" y="449"/>
      <point x="72" y="451" type="curve" smooth="yes"/>
      <point x="74" y="454"/>
      <point x="78" y="455"/>
      <point x="88" y="455" type="curve" smooth="yes"/>
      <point x="302" y="455" type="line" smooth="yes"/>
      <point x="315" y="455"/>
      <point x="317" y="457"/>
      <point x="317" y="469" type="curve" smooth="yes"/>
      <point x="317" y="668" type="line" smooth="yes"/>
      <point x="317" y="673"/>
      <point x="316" y="677"/>
      <point x="316" y="681" type="curve" smooth="yes"/>
      <point x="316" y="691"/>
      <point x="317" y="704"/>
      <point x="330" y="704" type="curve" smooth="yes"/>
      <point x="369" y="704" type="line" smooth="yes"/>
      <point x="381" y="704"/>
      <point x="383" y="703"/>
      <point x="383" y="682" type="curve" smooth="yes"/>
      <point x="383" y="466" type="line" smooth="yes"/>
      <point x="382" y="460"/>
      <point x="385" y="455"/>
      <point x="393" y="455" type="curve" smooth="yes"/>
      <point x="609" y="455" type="line" smooth="yes"/>
      <point x="628" y="455"/>
      <point x="630" y="451"/>
      <point x="630" y="438" type="curve" smooth="yes"/>
    </contour>
    <contour>
      <point x="630" y="-4" type="line" smooth="yes"/>
      <point x="630" y="-14"/>
      <point x="626" y="-20"/>
      <point x="620" y="-22" type="curve" smooth="yes"/>
      <point x="614" y="-25"/>
      <point x="603" y="-25"/>
      <point x="596" y="-25" type="curve" smooth="yes"/>
      <point x="482" y="-26"/>
      <point x="210" y="-26"/>
      <point x="98" y="-26" type="curve" smooth="yes"/>
      <point x="85" y="-26"/>
      <point x="78" y="-25"/>
      <point x="74" y="-21" type="curve" smooth="yes"/>
      <point x="73" y="-19"/>
      <point x="72" y="-16"/>
      <point x="71" y="-13" type="curve" smooth="yes"/>
      <point x="71" y="-10"/>
      <point x="71" y="-6"/>
      <point x="71" y="-1" type="curve" smooth="yes"/>
      <point x="71" y="21" type="line" smooth="yes"/>
      <point x="71" y="36"/>
      <point x="72" y="43"/>
      <point x="90" y="42" type="curve" smooth="yes"/>
      <point x="124" y="39"/>
      <point x="435" y="39"/>
      <point x="610" y="42" type="curve" smooth="yes"/>
      <point x="626" y="42"/>
      <point x="630" y="38"/>
      <point x="630" y="22" type="curve" smooth="yes"/>
    </contour>
  </outline>
</glyph>
<glyph name="ordmasculine" format="1">
  <advance width="360"/>
  <unicode hex="00BA"/>
  <outline>
    <contour>
      <point x="331" y="538" type="curve" smooth="yes"/>
      <point x="331" y="461"/>
      <point x="265" y="402"/>
      <point x="182" y="402" type="curve" smooth="yes"/>
      <point x="96" y="402"/>
      <point x="31" y="460"/>
      <point x="31" y="538" type="curve" smooth="yes"/>
      <point x="31" y="616"/>
      <point x="95" y="674"/>
      <point x="180" y="674" type="curve" smooth="yes"/>
      <point x="265" y="674"/>
      <point x="331" y="616"/>
    </contour>
    <contour>
      <point x="269" y="523" type="curve" smooth="yes"/>
      <point x="269" y="593"/>
      <point x="223" y="648"/>
      <point x="171" y="648" type="curve" smooth="yes"/>
      <point x="126" y="648"/>
      <point x="92" y="610"/>
      <point x="92" y="557" type="curve" smooth="yes"/>
      <point x="92" y="484"/>
      <point x="137" y="429"/>
      <point x="190" y="429" type="curve" smooth="yes"/>
      <point x="235" y="429"/>
      <point x="269" y="468"/>
    </contour>
  </outline>
</glyph>
<glyph name="guillemotright" format="1">
  <advance width="371"/>
  <unicode hex="00BB"/>
  <outline>
    <contour>
      <point x="342" y="230" type="line"/>
      <point x="185" y="33" type="line"/>
      <point x="154" y="33" type="line"/>
      <point x="255" y="231" type="line"/>
      <point x="255" y="230" type="line"/>
      <point x="154" y="430" type="line"/>
      <point x="185" y="430" type="line"/>
    </contour>
    <contour>
      <point x="195" y="230" type="line"/>
      <point x="72" y="51" type="line"/>
      <point x="42" y="51" type="line"/>
      <point x="109" y="230" type="line"/>
      <point x="42" y="413" type="line"/>
      <point x="72" y="413" type="line"/>
    </contour>
  </outline>
</glyph>
<glyph name="onequarter" format="1">
  <advance width="715"/>
  <unicode hex="00BC"/>
  <outline>
    <contour>
      <point x="696" y="99" type="curve" smooth="yes"/>
      <point x="695" y="96"/>
      <point x="695" y="94"/>
      <point x="694" y="92" type="curve" smooth="yes"/>
      <point x="693" y="88"/>
      <point x="689" y="86"/>
      <point x="681" y="86" type="curve" smooth="yes"/>
      <point x="644" y="86" type="line" smooth="yes"/>
      <point x="639" y="85"/>
      <point x="634" y="81"/>
      <point x="633" y="78" type="curve" smooth="yes"/>
      <point x="633" y="-4" type="line" smooth="yes"/>
      <point x="633" y="-8"/>
      <point x="631" y="-17"/>
      <point x="625" y="-17" type="curve" smooth="yes"/>
      <point x="618" y="-17"/>
      <point x="610" y="-17"/>
      <point x="601" y="-17" type="curve" smooth="yes"/>
      <point x="593" y="-17"/>
      <point x="585" y="-17"/>
      <point x="580" y="-15" type="curve" smooth="yes"/>
      <point x="574" y="-14"/>
      <point x="567" y="-12"/>
      <point x="566" y="-7" type="curve" smooth="yes"/>
      <point x="567" y="77" type="line" smooth="yes"/>
      <point x="565" y="83"/>
      <point x="559" y="85"/>
      <point x="555" y="86" type="curve" smooth="yes"/>
      <point x="432" y="86" type="line" smooth="yes"/>
      <point x="428" y="86"/>
      <point x="418" y="86"/>
      <point x="418" y="92" type="curve" smooth="yes"/>
      <point x="418" y="94" type="line"/>
      <point x="418" y="96" type="line"/>
      <point x="418" y="112" type="line"/>
      <point x="595" y="338" type="line"/>
      <point x="605" y="341"/>
      <point x="612" y="343"/>
      <point x="624" y="340" type="curve" smooth="yes"/>
      <point x="629" y="339"/>
      <point x="634" y="335"/>
      <point x="633" y="328" type="curve" smooth="yes"/>
      <point x="633" y="138" type="line" smooth="yes"/>
      <point x="633" y="134"/>
      <point x="637" y="133"/>
      <point x="644" y="133" type="curve" smooth="yes"/>
      <point x="683" y="133" type="line" smooth="yes"/>
      <point x="694" y="133"/>
      <point x="695" y="124"/>
      <point x="695" y="116" type="curve" smooth="yes"/>
      <point x="695" y="114"/>
      <point x="695" y="111"/>
      <point x="695" y="108" type="curve" smooth="yes"/>
      <point x="695" y="105"/>
      <point x="696" y="101"/>
    </contour>
    <contour>
      <point x="624" y="645" type="curve" smooth="yes"/>
      <point x="150" y="-26" type="line" smooth="yes"/>
      <point x="147" y="-31"/>
      <point x="142" y="-34"/>
      <point x="136" y="-34" type="curve" smooth="yes"/>
      <point x="104" y="-34" type="line" smooth="yes"/>
      <point x="95" y="-34"/>
      <point x="92" y="-22"/>
      <point x="97" y="-15" type="curve" smooth="yes"/>
      <point x="570" y="654" type="line"/>
      <point x="572" y="658" type="line" smooth="yes"/>
      <point x="574" y="660"/>
      <point x="575" y="660"/>
      <point x="578" y="660" type="curve" smooth="yes"/>
      <point x="582" y="660" type="line"/>
      <point x="623" y="660" type="line" smooth="yes"/>
      <point x="627" y="660"/>
      <point x="629" y="653"/>
    </contour>
    <contour>
      <point x="250" y="314" type="curve" smooth="yes"/>
      <point x="250" y="305"/>
      <point x="247" y="298"/>
      <point x="243" y="298" type="curve" smooth="yes"/>
      <point x="190" y="300"/>
      <point x="132" y="300"/>
      <point x="81" y="298" type="curve" smooth="yes"/>
      <point x="75" y="298"/>
      <point x="72" y="306"/>
      <point x="72" y="314" type="curve" smooth="yes"/>
      <point x="73" y="321"/>
      <point x="76" y="330"/>
      <point x="80" y="330" type="curve" smooth="yes"/>
      <point x="111" y="332" type="line" smooth="yes"/>
      <point x="126" y="333"/>
      <point x="128" y="337"/>
      <point x="128" y="351" type="curve" smooth="yes"/>
      <point x="128" y="559" type="line" smooth="yes"/>
      <point x="128" y="560"/>
      <point x="128" y="568"/>
      <point x="126" y="566" type="curve" smooth="yes"/>
      <point x="115" y="559"/>
      <point x="105" y="554"/>
      <point x="95" y="550" type="curve" smooth="yes"/>
      <point x="85" y="546"/>
      <point x="75" y="542"/>
      <point x="64" y="537" type="curve"/>
      <point x="50" y="537"/>
      <point x="43" y="553"/>
      <point x="49" y="561" type="curve" smooth="yes"/>
      <point x="89" y="585"/>
      <point x="132" y="618"/>
      <point x="152" y="642" type="curve" smooth="yes"/>
      <point x="155" y="646"/>
      <point x="195" y="647"/>
      <point x="195" y="639" type="curve" smooth="yes"/>
      <point x="195" y="352" type="line" smooth="yes"/>
      <point x="195" y="338"/>
      <point x="196" y="334"/>
      <point x="210" y="333" type="curve" smooth="yes"/>
      <point x="215" y="333"/>
      <point x="220" y="333"/>
      <point x="225" y="333" type="curve" smooth="yes"/>
      <point x="240" y="334"/>
      <point x="250" y="333"/>
    </contour>
    <contour>
      <point x="567" y="138" type="curve" smooth="yes"/>
      <point x="567" y="222" type="line" smooth="yes"/>
      <point x="567" y="225"/>
      <point x="567" y="230"/>
      <point x="566" y="234" type="curve" smooth="yes"/>
      <point x="566" y="238"/>
      <point x="565" y="239"/>
      <point x="562" y="236" type="curve" smooth="yes"/>
      <point x="490" y="141" type="line" smooth="yes"/>
      <point x="488" y="138"/>
      <point x="489" y="133"/>
      <point x="494" y="133" type="curve" smooth="yes"/>
      <point x="555" y="133" type="line" smooth="yes"/>
      <point x="562" y="133"/>
      <point x="567" y="135"/>
    </contour>
  </outline>
</glyph>
<glyph name="onehalf" format="1">
  <advance width="715"/>
  <unicode hex="00BD"/>
  <outline>
    <contour>
      <point x="698" y="81" type="curve" smooth="yes"/>
      <point x="698" y="81"/>
      <point x="685" y="0"/>
      <point x="684" y="0" type="curve" smooth="yes"/>
      <point x="685" y="0" type="line"/>
      <point x="683" y="-5"/>
      <point x="674" y="-7"/>
      <point x="669" y="-7" type="curve" smooth="yes"/>
      <point x="437" y="-7" type="line" smooth="yes"/>
      <point x="431" y="-7"/>
      <point x="426" y="-6"/>
      <point x="426" y="1" type="curve" smooth="yes"/>
      <point x="426" y="16" type="line"/>
      <point x="442" y="35"/>
      <point x="466" y="59"/>
      <point x="509" y="95" type="curve" smooth="yes"/>
      <point x="548" y="128"/>
      <point x="610" y="176"/>
      <point x="610" y="231" type="curve" smooth="yes"/>
      <point x="610" y="263"/>
      <point x="584" y="288"/>
      <point x="548" y="288" type="curve" smooth="yes"/>
      <point x="512" y="288"/>
      <point x="482" y="264"/>
      <point x="468" y="222" type="curve" smooth="yes"/>
      <point x="465" y="216"/>
      <point x="433" y="214"/>
      <point x="433" y="223" type="curve" smooth="yes"/>
      <point x="440" y="295"/>
      <point x="494" y="339"/>
      <point x="564" y="339" type="curve" smooth="yes"/>
      <point x="631" y="339"/>
      <point x="686" y="297"/>
      <point x="686" y="238" type="curve" smooth="yes"/>
      <point x="686" y="174"/>
      <point x="632" y="143"/>
      <point x="587" y="111" type="curve" smooth="yes"/>
      <point x="563" y="95"/>
      <point x="542" y="79"/>
      <point x="513" y="54" type="curve" smooth="yes"/>
      <point x="510" y="52"/>
      <point x="511" y="50"/>
      <point x="515" y="49" type="curve" smooth="yes"/>
      <point x="518" y="48"/>
      <point x="523" y="47"/>
      <point x="526" y="47" type="curve" smooth="yes"/>
      <point x="612" y="47" type="line" smooth="yes"/>
      <point x="621" y="47"/>
      <point x="643" y="46"/>
      <point x="650" y="51" type="curve" smooth="yes"/>
      <point x="652" y="53"/>
      <point x="654" y="56"/>
      <point x="656" y="61" type="curve" smooth="yes"/>
      <point x="657" y="65"/>
      <point x="659" y="72"/>
      <point x="661" y="82" type="curve" smooth="yes"/>
      <point x="662" y="88"/>
      <point x="669" y="88"/>
      <point x="673" y="88" type="curve" smooth="yes"/>
      <point x="675" y="88"/>
      <point x="677" y="87"/>
      <point x="680" y="88" type="curve" smooth="yes"/>
      <point x="689" y="88"/>
      <point x="698" y="85"/>
    </contour>
    <contour>
      <point x="624" y="645" type="curve" smooth="yes"/>
      <point x="150" y="-26" type="line" smooth="yes"/>
      <point x="146" y="-32"/>
      <point x="143" y="-33"/>
      <point x="137" y="-34" type="curve" smooth="yes"/>
      <point x="135" y="-34"/>
      <point x="133" y="-34"/>
      <point x="130" y="-34" type="curve" smooth="yes"/>
      <point x="103" y="-34" type="line" smooth="yes"/>
      <point x="91" y="-34"/>
      <point x="92" y="-22"/>
      <point x="94" y="-20" type="curve" smooth="yes"/>
      <point x="570" y="654" type="line" smooth="yes"/>
      <point x="573" y="658"/>
      <point x="575" y="660"/>
      <point x="580" y="660" type="curve" smooth="yes"/>
      <point x="582" y="660"/>
      <point x="584" y="660"/>
      <point x="586" y="660" type="curve" smooth="yes"/>
      <point x="620" y="660" type="line" smooth="yes"/>
      <point x="624" y="660"/>
      <point x="629" y="653"/>
    </contour>
    <contour>
      <point x="250" y="314" type="curve" smooth="yes"/>
      <point x="251" y="305"/>
      <point x="247" y="298"/>
      <point x="243" y="298" type="curve" smooth="yes"/>
      <point x="190" y="300"/>
      <point x="132" y="300"/>
      <point x="81" y="298" type="curve" smooth="yes"/>
      <point x="75" y="298"/>
      <point x="72" y="306"/>
      <point x="72" y="314" type="curve" smooth="yes"/>
      <point x="73" y="321"/>
      <point x="76" y="330"/>
      <point x="80" y="330" type="curve" smooth="yes"/>
      <point x="119" y="332" type="line" smooth="yes"/>
      <point x="130" y="333"/>
      <point x="128" y="343"/>
      <point x="128" y="351" type="curve" smooth="yes"/>
      <point x="128" y="549" type="line" smooth="yes"/>
      <point x="128" y="554"/>
      <point x="127" y="567"/>
      <point x="117" y="562" type="curve" smooth="yes"/>
      <point x="108" y="556"/>
      <point x="103" y="554"/>
      <point x="95" y="550" type="curve" smooth="yes"/>
      <point x="85" y="546"/>
      <point x="75" y="542"/>
      <point x="64" y="537" type="curve"/>
      <point x="50" y="537"/>
      <point x="43" y="553"/>
      <point x="49" y="561" type="curve" smooth="yes"/>
      <point x="89" y="585"/>
      <point x="132" y="618"/>
      <point x="152" y="642" type="curve" smooth="yes"/>
      <point x="155" y="645"/>
      <point x="175" y="646"/>
      <point x="187" y="644" type="curve" smooth="yes"/>
      <point x="194" y="643"/>
      <point x="195" y="634"/>
      <point x="195" y="628" type="curve" smooth="yes"/>
      <point x="195" y="352" type="line" smooth="yes"/>
      <point x="195" y="338"/>
      <point x="197" y="333"/>
      <point x="211" y="332" type="curve" smooth="yes"/>
      <point x="216" y="332"/>
      <point x="221" y="332"/>
      <point x="226" y="332" type="curve" smooth="yes"/>
      <point x="241" y="333"/>
      <point x="250" y="333"/>
    </contour>
  </outline>
</glyph>
<glyph name="threequarters" format="1">
  <advance width="715"/>
  <unicode hex="00BE"/>
  <outline>
    <contour>
      <point x="669" y="109" type="curve" smooth="yes"/>
      <point x="669" y="104"/>
      <point x="667" y="86"/>
      <point x="660" y="86" type="curve" smooth="yes"/>
      <point x="615" y="86" type="line" smooth="yes"/>
      <point x="611" y="85"/>
      <point x="606" y="81"/>
      <point x="605" y="78" type="curve" smooth="yes"/>
      <point x="606" y="-4" type="line" smooth="yes"/>
      <point x="605" y="-8"/>
      <point x="602" y="-17"/>
      <point x="596" y="-17" type="curve" smooth="yes"/>
      <point x="590" y="-17"/>
      <point x="581" y="-17"/>
      <point x="571" y="-17" type="curve" smooth="yes"/>
      <point x="562" y="-17"/>
      <point x="554" y="-17"/>
      <point x="548" y="-15" type="curve" smooth="yes"/>
      <point x="542" y="-14"/>
      <point x="539" y="-12"/>
      <point x="538" y="-7" type="curve" smooth="yes"/>
      <point x="539" y="77" type="line" smooth="yes"/>
      <point x="536" y="84"/>
      <point x="534" y="85"/>
      <point x="527" y="86" type="curve" smooth="yes"/>
      <point x="404" y="86" type="line" smooth="yes"/>
      <point x="399" y="86"/>
      <point x="389" y="90"/>
      <point x="390" y="96" type="curve" smooth="yes"/>
      <point x="390" y="97" type="line"/>
      <point x="390" y="98" type="line"/>
      <point x="390" y="112" type="line"/>
      <point x="567" y="338" type="line"/>
      <point x="577" y="341"/>
      <point x="583" y="343"/>
      <point x="595" y="340" type="curve" smooth="yes"/>
      <point x="601" y="339"/>
      <point x="606" y="335"/>
      <point x="605" y="328" type="curve" smooth="yes"/>
      <point x="605" y="138" type="line" smooth="yes"/>
      <point x="605" y="134"/>
      <point x="609" y="133"/>
      <point x="615" y="133" type="curve" smooth="yes"/>
      <point x="655" y="133" type="line" smooth="yes"/>
      <point x="661" y="133"/>
      <point x="665" y="128"/>
      <point x="666" y="125" type="curve" smooth="yes"/>
      <point x="668" y="120"/>
      <point x="669" y="114"/>
    </contour>
    <contour>
      <point x="621" y="641" type="curve" smooth="yes"/>
      <point x="150" y="-26" type="line" smooth="yes"/>
      <point x="143" y="-35"/>
      <point x="141" y="-35"/>
      <point x="131" y="-35" type="curve" smooth="yes"/>
      <point x="104" y="-34" type="line" smooth="yes"/>
      <point x="93" y="-34"/>
      <point x="94" y="-20"/>
      <point x="96" y="-18" type="curve" smooth="yes"/>
      <point x="570" y="654" type="line" smooth="yes"/>
      <point x="575" y="661"/>
      <point x="585" y="660"/>
      <point x="593" y="660" type="curve" smooth="yes"/>
      <point x="614" y="660" type="line" smooth="yes"/>
      <point x="622" y="660"/>
      <point x="626" y="648"/>
    </contour>
    <contour>
      <point x="279" y="420" type="curve" smooth="yes"/>
      <point x="279" y="349"/>
      <point x="201" y="291"/>
      <point x="118" y="291" type="curve" smooth="yes"/>
      <point x="71" y="291"/>
      <point x="17" y="308"/>
      <point x="17" y="338" type="curve" smooth="yes"/>
      <point x="17" y="354"/>
      <point x="33" y="367"/>
      <point x="50" y="367" type="curve" smooth="yes"/>
      <point x="68" y="367"/>
      <point x="85" y="352"/>
      <point x="99" y="342" type="curve" smooth="yes"/>
      <point x="116" y="330"/>
      <point x="126" y="327"/>
      <point x="138" y="327" type="curve" smooth="yes"/>
      <point x="174" y="327"/>
      <point x="208" y="363"/>
      <point x="208" y="407" type="curve" smooth="yes"/>
      <point x="208" y="442"/>
      <point x="185" y="467"/>
      <point x="159" y="467" type="curve" smooth="yes"/>
      <point x="148" y="467"/>
      <point x="139" y="465"/>
      <point x="124" y="454" type="curve" smooth="yes"/>
      <point x="120" y="450"/>
      <point x="112" y="447"/>
      <point x="107" y="452" type="curve" smooth="yes"/>
      <point x="103" y="456"/>
      <point x="100" y="461"/>
      <point x="98" y="465" type="curve" smooth="yes"/>
      <point x="95" y="471"/>
      <point x="97" y="477"/>
      <point x="102" y="480" type="curve" smooth="yes"/>
      <point x="154" y="513"/>
      <point x="178" y="542"/>
      <point x="178" y="560" type="curve" smooth="yes"/>
      <point x="178" y="579"/>
      <point x="161" y="595"/>
      <point x="135" y="595" type="curve" smooth="yes"/>
      <point x="111" y="595"/>
      <point x="84" y="579"/>
      <point x="66" y="544" type="curve" smooth="yes"/>
      <point x="61" y="539"/>
      <point x="26" y="544"/>
      <point x="32" y="558" type="curve" smooth="yes"/>
      <point x="55" y="612"/>
      <point x="102" y="643"/>
      <point x="155" y="643" type="curve" smooth="yes"/>
      <point x="203" y="643"/>
      <point x="245" y="617"/>
      <point x="245" y="576" type="curve" smooth="yes"/>
      <point x="245" y="554"/>
      <point x="233" y="535"/>
      <point x="212" y="517" type="curve" smooth="yes"/>
      <point x="206" y="513"/>
      <point x="207" y="510"/>
      <point x="213" y="509" type="curve" smooth="yes"/>
      <point x="254" y="496"/>
      <point x="279" y="464"/>
    </contour>
    <contour>
      <point x="539" y="138" type="curve" smooth="yes"/>
      <point x="539" y="232" type="line" smooth="yes"/>
      <point x="539" y="234"/>
      <point x="539" y="238"/>
      <point x="538" y="239" type="curve" smooth="yes"/>
      <point x="537" y="241"/>
      <point x="534" y="237"/>
      <point x="534" y="236" type="curve" smooth="yes"/>
      <point x="462" y="141" type="line" smooth="yes"/>
      <point x="459" y="138"/>
      <point x="461" y="133"/>
      <point x="465" y="133" type="curve" smooth="yes"/>
      <point x="529" y="133" type="line" smooth="yes"/>
      <point x="535" y="133"/>
      <point x="539" y="135"/>
    </contour>
  </outline>
</glyph>
<glyph name="Idieresis" format="1">
  <advance width="363"/>
  <unicode hex="00CF"/>
  <outline>
    <contour>
      <point x="325" y="764" type="curve" smooth="yes"/>
      <point x="325" y="731"/>
      <point x="299" y="704"/>
      <point x="264" y="704" type="curve" smooth="yes"/>
      <point x="231" y="704"/>
      <point x="204" y="731"/>
      <point x="204" y="764" type="curve" smooth="yes"/>
      <point x="204" y="797"/>
      <point x="231" y="824"/>
      <point x="264" y="824" type="curve" smooth="yes"/>
      <point x="299" y="824"/>
      <point x="325" y="797"/>
    </contour>
    <contour>
      <point x="147" y="764" type="curve" smooth="yes"/>
      <point x="147" y="730"/>
      <point x="120" y="704"/>
      <point x="87" y="704" type="curve" smooth="yes"/>
      <point x="54" y="704"/>
      <point x="27" y="730"/>
      <point x="27" y="764" type="curve" smooth="yes"/>
      <point x="27" y="797"/>
      <point x="54" y="824"/>
      <point x="87" y="824" type="curve" smooth="yes"/>
      <point x="120" y="824"/>
      <point x="147" y="797"/>
    </contour>
    <contour>
      <point x="317" y="640" type="curve" smooth="yes"/>
      <point x="318" y="632"/>
      <point x="318" y="619"/>
      <point x="312" y="618" type="curve" smooth="yes"/>
      <point x="308" y="618"/>
      <point x="303" y="617"/>
      <point x="298" y="617" type="curve" smooth="yes"/>
      <point x="237" y="616"/>
      <point x="229" y="606"/>
      <point x="229" y="514" type="curve" smooth="yes"/>
      <point x="229" y="99" type="line" smooth="yes"/>
      <point x="229" y="47"/>
      <point x="244" y="34"/>
      <point x="298" y="33" type="curve" smooth="yes"/>
      <point x="304" y="33"/>
      <point x="309" y="33"/>
      <point x="313" y="32" type="curve" smooth="yes"/>
      <point x="326" y="24"/>
      <point x="320" y="-3"/>
      <point x="312" y="-3" type="curve" smooth="yes"/>
      <point x="249" y="-1"/>
      <point x="127" y="-1"/>
      <point x="64" y="-3" type="curve" smooth="yes"/>
      <point x="58" y="-3"/>
      <point x="52" y="2"/>
      <point x="52" y="12" type="curve" smooth="yes"/>
      <point x="52" y="20"/>
      <point x="56" y="31"/>
      <point x="61" y="31" type="curve" smooth="yes"/>
      <point x="124" y="37"/>
      <point x="129" y="45"/>
      <point x="131" y="99" type="curve" smooth="yes"/>
      <point x="132" y="134" type="line"/>
      <point x="132" y="514" type="line"/>
      <point x="131" y="549" type="line" smooth="yes"/>
      <point x="130" y="601"/>
      <point x="122" y="613"/>
      <point x="68" y="619" type="curve" smooth="yes"/>
      <point x="60" y="620"/>
      <point x="51" y="625"/>
      <point x="57" y="644" type="curve" smooth="yes"/>
      <point x="60" y="652"/>
      <point x="64" y="651"/>
      <point x="71" y="651" type="curve" smooth="yes"/>
      <point x="153" y="651"/>
      <point x="179" y="645"/>
      <point x="301" y="651" type="curve" smooth="yes"/>
      <point x="310" y="651"/>
      <point x="316" y="650"/>
    </contour>
  </outline>
</glyph>
<glyph name="Ograve" format="1">
  <advance width="827"/>
  <unicode hex="00D2"/>
  <outline>
    <contour>
      <point x="485" y="710" type="curve" smooth="yes"/>
      <point x="485" y="697"/>
      <point x="467" y="696"/>
      <point x="459" y="703" type="curve" smooth="yes"/>
      <point x="427" y="745"/>
      <point x="368" y="814"/>
      <point x="325" y="861" type="curve" smooth="yes"/>
      <point x="319" y="867"/>
      <point x="327" y="880"/>
      <point x="340" y="880" type="curve" smooth="yes"/>
      <point x="416" y="881" type="line" smooth="yes"/>
      <point x="425" y="881"/>
      <point x="431" y="881"/>
      <point x="435" y="873" type="curve" smooth="yes"/>
      <point x="452" y="828"/>
      <point x="474" y="753"/>
    </contour>
    <contour>
      <point x="769" y="339" type="curve" smooth="yes"/>
      <point x="769" y="138"/>
      <point x="619" y="-19"/>
      <point x="413" y="-19" type="curve" smooth="yes"/>
      <point x="204" y="-19"/>
      <point x="53" y="125"/>
      <point x="53" y="312" type="curve" smooth="yes"/>
      <point x="53" y="515"/>
      <point x="202" y="667"/>
      <point x="415" y="667" type="curve" smooth="yes"/>
      <point x="624" y="667"/>
      <point x="769" y="527"/>
    </contour>
    <contour>
      <point x="661" y="309" type="curve" smooth="yes"/>
      <point x="661" y="496"/>
      <point x="552" y="631"/>
      <point x="387" y="631" type="curve" smooth="yes"/>
      <point x="249" y="631"/>
      <point x="161" y="510"/>
      <point x="161" y="338" type="curve" smooth="yes"/>
      <point x="161" y="157"/>
      <point x="272" y="18"/>
      <point x="430" y="18" type="curve" smooth="yes"/>
      <point x="606" y="18"/>
      <point x="661" y="157"/>
    </contour>
  </outline>
</glyph>
<glyph name="Oacute" format="1">
  <advance width="827"/>
  <unicode hex="00D3"/>
  <outline>
    <contour>
      <point x="543" y="875" type="curve" smooth="yes"/>
      <point x="543" y="873"/>
      <point x="543" y="871"/>
      <point x="542" y="870" type="curve" smooth="yes"/>
      <point x="399" y="698" type="line" smooth="yes"/>
      <point x="393" y="691"/>
      <point x="369" y="691"/>
      <point x="374" y="707" type="curve" smooth="yes"/>
      <point x="423" y="871" type="line" smooth="yes"/>
      <point x="425" y="879"/>
      <point x="434" y="884"/>
      <point x="441" y="884" type="curve" smooth="yes"/>
      <point x="529" y="885" type="line" smooth="yes"/>
      <point x="537" y="885"/>
      <point x="545" y="883"/>
    </contour>
    <contour>
      <point x="769" y="339" type="curve" smooth="yes"/>
      <point x="769" y="138"/>
      <point x="619" y="-19"/>
      <point x="413" y="-19" type="curve" smooth="yes"/>
      <point x="204" y="-19"/>
      <point x="53" y="125"/>
      <point x="53" y="312" type="curve" smooth="yes"/>
      <point x="53" y="515"/>
      <point x="202" y="667"/>
      <point x="415" y="667" type="curve" smooth="yes"/>
      <point x="624" y="667"/>
      <point x="769" y="527"/>
    </contour>
    <contour>
      <point x="661" y="309" type="curve" smooth="yes"/>
      <point x="661" y="496"/>
      <point x="552" y="631"/>
      <point x="387" y="631" type="curve" smooth="yes"/>
      <point x="249" y="631"/>
      <point x="161" y="510"/>
      <point x="161" y="338" type="curve" smooth="yes"/>
      <point x="161" y="157"/>
      <point x="272" y="18"/>
      <point x="430" y="18" type="curve" smooth="yes"/>
      <point x="606" y="18"/>
      <point x="661" y="157"/>
    </contour>
  </outline>
</glyph>
<glyph name="Otilde" format="1">
  <advance width="827"/>
  <unicode hex="00D5"/>
  <outline>
    <contour>
      <point x="769" y="339" type="curve" smooth="yes"/>
      <point x="769" y="138"/>
      <point x="619" y="-19"/>
      <point x="413" y="-19" type="curve" smooth="yes"/>
      <point x="204" y="-19"/>
      <point x="53" y="125"/>
      <point x="53" y="312" type="curve" smooth="yes"/>
      <point x="53" y="515"/>
      <point x="202" y="667"/>
      <point x="415" y="667" type="curve" smooth="yes"/>
      <point x="624" y="667"/>
      <point x="769" y="527"/>
    </contour>
    <contour>
      <point x="661" y="309" type="curve" smooth="yes"/>
      <point x="661" y="496"/>
      <point x="552" y="631"/>
      <point x="387" y="631" type="curve" smooth="yes"/>
      <point x="249" y="631"/>
      <point x="161" y="510"/>
      <point x="161" y="338" type="curve" smooth="yes"/>
      <point x="161" y="157"/>
      <point x="272" y="18"/>
      <point x="430" y="18" type="curve" smooth="yes"/>
      <point x="606" y="18"/>
      <point x="661" y="157"/>
    </contour>
    <contour>
      <point x="567" y="821" type="curve" smooth="yes"/>
      <point x="567" y="750"/>
      <point x="526" y="697"/>
      <point x="468" y="697" type="curve" smooth="yes"/>
      <point x="441" y="697"/>
      <point x="409" y="710"/>
      <point x="371" y="736" type="curve" smooth="yes"/>
      <point x="334" y="762"/>
      <point x="325" y="765"/>
      <point x="312" y="765" type="curve" smooth="yes"/>
      <point x="293" y="765"/>
      <point x="283" y="754"/>
      <point x="275" y="718" type="curve" smooth="yes"/>
      <point x="275" y="714"/>
      <point x="273" y="710"/>
      <point x="272" y="700" type="curve" smooth="yes"/>
      <point x="268" y="692"/>
      <point x="247" y="687"/>
      <point x="245" y="700" type="curve" smooth="yes"/>
      <point x="249" y="786"/>
      <point x="282" y="835"/>
      <point x="343" y="835" type="curve" smooth="yes"/>
      <point x="373" y="835"/>
      <point x="396" y="826"/>
      <point x="441" y="795" type="curve" smooth="yes"/>
      <point x="472" y="774"/>
      <point x="488" y="768"/>
      <point x="500" y="768" type="curve" smooth="yes"/>
      <point x="521" y="768"/>
      <point x="532" y="780"/>
      <point x="540" y="834" type="curve" smooth="yes"/>
      <point x="540" y="838"/>
      <point x="547" y="840"/>
      <point x="553" y="840" type="curve" smooth="yes"/>
      <point x="559" y="841"/>
      <point x="565" y="838"/>
      <point x="565" y="834" type="curve" smooth="yes"/>
      <point x="567" y="828"/>
      <point x="567" y="824"/>
    </contour>
  </outline>
</glyph>
<glyph name="Udieresis" format="1">
  <advance width="815"/>
  <unicode hex="00DC"/>
  <outline>
    <contour>
      <point x="563" y="764" type="curve" smooth="yes"/>
      <point x="563" y="731"/>
      <point x="537" y="704"/>
      <point x="503" y="704" type="curve" smooth="yes"/>
      <point x="470" y="704"/>
      <point x="442" y="731"/>
      <point x="442" y="764" type="curve" smooth="yes"/>
      <point x="442" y="797"/>
      <point x="470" y="824"/>
      <point x="503" y="824" type="curve" smooth="yes"/>
      <point x="537" y="824"/>
      <point x="563" y="797"/>
    </contour>
    <contour>
      <point x="386" y="764" type="curve" smooth="yes"/>
      <point x="386" y="730"/>
      <point x="359" y="704"/>
      <point x="326" y="704" type="curve" smooth="yes"/>
      <point x="293" y="704"/>
      <point x="265" y="730"/>
      <point x="265" y="764" type="curve" smooth="yes"/>
      <point x="265" y="797"/>
      <point x="292" y="824"/>
      <point x="326" y="824" type="curve" smooth="yes"/>
      <point x="359" y="824"/>
      <point x="386" y="797"/>
    </contour>
    <contour>
      <point x="793" y="635" type="curve" smooth="yes"/>
      <point x="793" y="628"/>
      <point x="790" y="620"/>
      <point x="784" y="619" type="curve" smooth="yes"/>
      <point x="707" y="616"/>
      <point x="692" y="597"/>
      <point x="692" y="489" type="curve" smooth="yes"/>
      <point x="692" y="305" type="line" smooth="yes"/>
      <point x="692" y="201"/>
      <point x="691" y="128"/>
      <point x="608" y="55" type="curve" smooth="yes"/>
      <point x="551" y="4"/>
      <point x="500" y="-19"/>
      <point x="402" y="-19" type="curve" smooth="yes"/>
      <point x="266" y="-19"/>
      <point x="185" y="35"/>
      <point x="141" y="131" type="curve" smooth="yes"/>
      <point x="121" y="176"/>
      <point x="118" y="198"/>
      <point x="118" y="295" type="curve" smooth="yes"/>
      <point x="118" y="555" type="line" smooth="yes"/>
      <point x="118" y="610"/>
      <point x="107" y="617"/>
      <point x="32" y="618" type="curve" smooth="yes"/>
      <point x="22" y="618"/>
      <point x="18" y="649"/>
      <point x="32" y="650" type="curve" smooth="yes"/>
      <point x="60" y="652"/>
      <point x="219" y="652"/>
      <point x="302" y="650" type="curve" smooth="yes"/>
      <point x="316" y="650"/>
      <point x="312" y="616"/>
      <point x="302" y="618" type="curve" smooth="yes"/>
      <point x="292" y="618" type="line" smooth="yes"/>
      <point x="233" y="618"/>
      <point x="218" y="603"/>
      <point x="216" y="549" type="curve" smooth="yes"/>
      <point x="216" y="534"/>
      <point x="215" y="520"/>
      <point x="215" y="505" type="curve" smooth="yes"/>
      <point x="215" y="481"/>
      <point x="215" y="431"/>
      <point x="215" y="310" type="curve" smooth="yes"/>
      <point x="215" y="164"/>
      <point x="259" y="47"/>
      <point x="425" y="47" type="curve" smooth="yes"/>
      <point x="532" y="47"/>
      <point x="590" y="91"/>
      <point x="618" y="166" type="curve" smooth="yes"/>
      <point x="635" y="211"/>
      <point x="634" y="256"/>
      <point x="634" y="304" type="curve" smooth="yes"/>
      <point x="634" y="485" type="line" smooth="yes"/>
      <point x="634" y="596"/>
      <point x="622" y="615"/>
      <point x="544" y="617" type="curve"/>
      <point x="537" y="619" type="line" smooth="yes"/>
      <point x="527" y="619"/>
      <point x="522" y="650"/>
      <point x="537" y="650" type="curve" smooth="yes"/>
      <point x="588" y="651"/>
      <point x="722" y="651"/>
      <point x="784" y="650" type="curve" smooth="yes"/>
      <point x="790" y="650"/>
      <point x="793" y="642"/>
    </contour>
  </outline>
</glyph>
<glyph name="aring" format="1">
  <advance width="414"/>
  <unicode hex="00E5"/>
  <outline>
    <contour>
      <point x="397" y="46" type="curve"/>
      <point x="356" y="10"/>
      <point x="316" y="-12"/>
      <point x="291" y="-12" type="curve" smooth="yes"/>
      <point x="262" y="-12"/>
      <point x="245" y="5"/>
      <point x="239" y="40" type="curve" smooth="yes"/>
      <point x="237" y="49"/>
      <point x="227" y="37"/>
      <point x="224" y="35" type="curve" smooth="yes"/>
      <point x="181" y="-2"/>
      <point x="160" y="-12"/>
      <point x="122" y="-12" type="curve" smooth="yes"/>
      <point x="65" y="-12"/>
      <point x="25" y="25"/>
      <point x="25" y="78" type="curve" smooth="yes"/>
      <point x="25" y="129"/>
      <point x="62" y="162"/>
      <point x="131" y="180" type="curve" smooth="yes"/>
      <point x="167" y="190"/>
      <point x="192" y="201"/>
      <point x="226" y="217" type="curve" smooth="yes"/>
      <point x="229" y="219"/>
      <point x="237" y="225"/>
      <point x="237" y="235" type="curve" smooth="yes"/>
      <point x="236" y="299" type="line" smooth="yes"/>
      <point x="235" y="357"/>
      <point x="210" y="389"/>
      <point x="168" y="389" type="curve" smooth="yes"/>
      <point x="147" y="389"/>
      <point x="111" y="367"/>
      <point x="111" y="344" type="curve" smooth="yes"/>
      <point x="111" y="335"/>
      <point x="110" y="329"/>
      <point x="114" y="320" type="curve"/>
      <point x="107" y="312"/>
      <point x="61" y="292"/>
      <point x="54" y="290" type="curve" smooth="yes"/>
      <point x="37" y="284"/>
      <point x="31" y="286"/>
      <point x="31" y="305" type="curve" smooth="yes"/>
      <point x="31" y="330"/>
      <point x="55" y="360"/>
      <point x="94" y="390" type="curve" smooth="yes"/>
      <point x="131" y="420"/>
      <point x="156" y="431"/>
      <point x="188" y="431" type="curve" smooth="yes"/>
      <point x="231" y="431"/>
      <point x="277" y="407"/>
      <point x="300" y="374" type="curve" smooth="yes"/>
      <point x="316" y="352"/>
      <point x="317" y="344"/>
      <point x="317" y="281" type="curve" smooth="yes"/>
      <point x="317" y="99" type="line" smooth="yes"/>
      <point x="317" y="57"/>
      <point x="325" y="50"/>
      <point x="339" y="50" type="curve" smooth="yes"/>
      <point x="346" y="50"/>
      <point x="351" y="50"/>
      <point x="357" y="53" type="curve" smooth="yes"/>
      <point x="363" y="55"/>
      <point x="371" y="59"/>
      <point x="381" y="68" type="curve" smooth="yes"/>
      <point x="384" y="70"/>
      <point x="385" y="71"/>
      <point x="390" y="71" type="curve" smooth="yes"/>
      <point x="401" y="69"/>
      <point x="400" y="54"/>
    </contour>
    <contour>
      <point x="236" y="89" type="curve"/>
      <point x="236" y="172" type="line" smooth="yes"/>
      <point x="236" y="176"/>
      <point x="236" y="187"/>
      <point x="227" y="183" type="curve" smooth="yes"/>
      <point x="204" y="172"/>
      <point x="180" y="162"/>
      <point x="156" y="152" type="curve" smooth="yes"/>
      <point x="116" y="136"/>
      <point x="102" y="118"/>
      <point x="102" y="91" type="curve" smooth="yes"/>
      <point x="102" y="60"/>
      <point x="126" y="36"/>
      <point x="157" y="36" type="curve" smooth="yes"/>
      <point x="177" y="36"/>
      <point x="228" y="66"/>
    </contour>
    <contour>
      <point x="297" y="577" type="curve" smooth="yes"/>
      <point x="297" y="520"/>
      <point x="251" y="474"/>
      <point x="196" y="474" type="curve" smooth="yes"/>
      <point x="139" y="474"/>
      <point x="93" y="520"/>
      <point x="93" y="577" type="curve" smooth="yes"/>
      <point x="93" y="634"/>
      <point x="139" y="680"/>
      <point x="196" y="680" type="curve" smooth="yes"/>
      <point x="251" y="680"/>
      <point x="297" y="634"/>
    </contour>
    <contour>
      <point x="250" y="577" type="curve" smooth="yes"/>
      <point x="250" y="608"/>
      <point x="225" y="633"/>
      <point x="196" y="633" type="curve" smooth="yes"/>
      <point x="165" y="633"/>
      <point x="140" y="608"/>
      <point x="140" y="577" type="curve" smooth="yes"/>
      <point x="140" y="546"/>
      <point x="165" y="521"/>
      <point x="196" y="521" type="curve" smooth="yes"/>
      <point x="225" y="521"/>
      <point x="250" y="546"/>
    </contour>
  </outline>
</glyph>
<glyph name="eacute" format="1">
  <advance width="424"/>
  <unicode hex="00E9"/>
  <outline>
    <contour>
      <point x="343" y="652" type="curve" smooth="yes"/>
      <point x="343" y="650"/>
      <point x="343" y="648"/>
      <point x="342" y="647" type="curve" smooth="yes"/>
      <point x="199" y="475" type="line" smooth="yes"/>
      <point x="193" y="468"/>
      <point x="169" y="468"/>
      <point x="174" y="484" type="curve" smooth="yes"/>
      <point x="223" y="648" type="line" smooth="yes"/>
      <point x="225" y="656"/>
      <point x="234" y="661"/>
      <point x="241" y="661" type="curve" smooth="yes"/>
      <point x="329" y="661" type="line" smooth="yes"/>
      <point x="337" y="661"/>
      <point x="345" y="660"/>
    </contour>
    <contour>
      <point x="401" y="276" type="curve" smooth="yes"/>
      <point x="401" y="269"/>
      <point x="394" y="267"/>
      <point x="388" y="267" type="curve" smooth="yes"/>
      <point x="311" y="264"/>
      <point x="184" y="266"/>
      <point x="120" y="267" type="curve" smooth="yes"/>
      <point x="112" y="267"/>
      <point x="102" y="264"/>
      <point x="101" y="257" type="curve" smooth="yes"/>
      <point x="99" y="246"/>
      <point x="99" y="240"/>
      <point x="99" y="227" type="curve" smooth="yes"/>
      <point x="99" y="124"/>
      <point x="164" y="49"/>
      <point x="248" y="49" type="curve" smooth="yes"/>
      <point x="297" y="49"/>
      <point x="334" y="67"/>
      <point x="373" y="113" type="curve" smooth="yes"/>
      <point x="376" y="116"/>
      <point x="383" y="119"/>
      <point x="388" y="118" type="curve" smooth="yes"/>
      <point x="396" y="116"/>
      <point x="402" y="104"/>
      <point x="398" y="97" type="curve" smooth="yes"/>
      <point x="379" y="75"/>
      <point x="353" y="49"/>
      <point x="327" y="28" type="curve" smooth="yes"/>
      <point x="293" y="2"/>
      <point x="249" y="-15"/>
      <point x="209" y="-15" type="curve" smooth="yes"/>
      <point x="103" y="-15"/>
      <point x="24" y="81"/>
      <point x="24" y="202" type="curve" smooth="yes"/>
      <point x="24" y="332"/>
      <point x="111" y="429"/>
      <point x="229" y="429" type="curve" smooth="yes"/>
      <point x="299" y="429"/>
      <point x="348" y="403"/>
      <point x="373" y="341" type="curve" smooth="yes"/>
      <point x="380" y="324" type="line" smooth="yes"/>
      <point x="387" y="312"/>
      <point x="392" y="303"/>
      <point x="401" y="292" type="curve" smooth="yes"/>
      <point x="403" y="286"/>
      <point x="403" y="283"/>
    </contour>
    <contour>
      <point x="300" y="311" type="curve" smooth="yes"/>
      <point x="285" y="366"/>
      <point x="250" y="398"/>
      <point x="207" y="398" type="curve" smooth="yes"/>
      <point x="164" y="398"/>
      <point x="129" y="367"/>
      <point x="110" y="307" type="curve" smooth="yes"/>
      <point x="108" y="302"/>
      <point x="122" y="299"/>
      <point x="126" y="299" type="curve" smooth="yes"/>
      <point x="276" y="299" type="line" smooth="yes"/>
      <point x="284" y="299"/>
      <point x="302" y="302"/>
    </contour>
  </outline>
</glyph>
<glyph name="icircumflex" format="1">
  <advance width="262"/>
  <unicode hex="00EE"/>
  <outline>
    <contour>
      <point x="246" y="13" type="curve" smooth="yes"/>
      <point x="246" y="6"/>
      <point x="242" y="-2"/>
      <point x="240" y="-2" type="curve" smooth="yes"/>
      <point x="189" y="-1"/>
      <point x="96" y="-1"/>
      <point x="29" y="-2" type="curve" smooth="yes"/>
      <point x="25" y="-3"/>
      <point x="21" y="5"/>
      <point x="20" y="13" type="curve" smooth="yes"/>
      <point x="19" y="21"/>
      <point x="21" y="30"/>
      <point x="27" y="30" type="curve" smooth="yes"/>
      <point x="40" y="30" type="line" smooth="yes"/>
      <point x="99" y="30"/>
      <point x="100" y="40"/>
      <point x="100" y="125" type="curve" smooth="yes"/>
      <point x="100" y="304" type="line" smooth="yes"/>
      <point x="100" y="354"/>
      <point x="98" y="354"/>
      <point x="73" y="359" type="curve" smooth="yes"/>
      <point x="58" y="362"/>
      <point x="46" y="365"/>
      <point x="32" y="370" type="curve" smooth="yes"/>
      <point x="25" y="372"/>
      <point x="25" y="391"/>
      <point x="31" y="395" type="curve" smooth="yes"/>
      <point x="158" y="439" type="line" smooth="yes"/>
      <point x="172" y="444"/>
      <point x="178" y="440"/>
      <point x="178" y="425" type="curve" smooth="yes"/>
      <point x="178" y="125" type="line" smooth="yes"/>
      <point x="178" y="104"/>
      <point x="178" y="87"/>
      <point x="179" y="73" type="curve" smooth="yes"/>
      <point x="181" y="35"/>
      <point x="188" y="30"/>
      <point x="229" y="30" type="curve" smooth="yes"/>
      <point x="240" y="30" type="line" smooth="yes"/>
      <point x="244" y="29"/>
      <point x="247" y="21"/>
    </contour>
    <contour>
      <point x="271" y="486" type="line" smooth="yes"/>
      <point x="273" y="481"/>
      <point x="276" y="474"/>
      <point x="270" y="473" type="curve" smooth="yes"/>
      <point x="263" y="471"/>
      <point x="253" y="472"/>
      <point x="250" y="475" type="curve" smooth="yes"/>
      <point x="128" y="579" type="line"/>
      <point x="13" y="475" type="line" smooth="yes"/>
      <point x="5" y="468"/>
      <point x="-15" y="473"/>
      <point x="-11" y="481" type="curve" smooth="yes"/>
      <point x="78" y="637" type="line" smooth="yes"/>
      <point x="81" y="642"/>
      <point x="86" y="645"/>
      <point x="91" y="647" type="curve" smooth="yes"/>
      <point x="98" y="648"/>
      <point x="153" y="649"/>
      <point x="166" y="648" type="curve" smooth="yes"/>
      <point x="176" y="647"/>
      <point x="178" y="646"/>
      <point x="183" y="638" type="curve" smooth="yes"/>
    </contour>
  </outline>
</glyph>
<glyph name="idieresis" format="1">
  <advance width="262"/>
  <unicode hex="00EF"/>
  <outline>
    <contour>
      <point x="246" y="13" type="curve" smooth="yes"/>
      <point x="246" y="6"/>
      <point x="242" y="-2"/>
      <point x="240" y="-2" type="curve" smooth="yes"/>
      <point x="189" y="-1"/>
      <point x="96" y="-1"/>
      <point x="29" y="-2" type="curve" smooth="yes"/>
      <point x="25" y="-3"/>
      <point x="21" y="5"/>
      <point x="20" y="13" type="curve" smooth="yes"/>
      <point x="19" y="21"/>
      <point x="21" y="30"/>
      <point x="27" y="30" type="curve" smooth="yes"/>
      <point x="40" y="30" type="line" smooth="yes"/>
      <point x="99" y="30"/>
      <point x="100" y="40"/>
      <point x="100" y="125" type="curve" smooth="yes"/>
      <point x="100" y="304" type="line" smooth="yes"/>
      <point x="100" y="354"/>
      <point x="98" y="354"/>
      <point x="73" y="359" type="curve" smooth="yes"/>
      <point x="58" y="362"/>
      <point x="46" y="365"/>
      <point x="32" y="370" type="curve" smooth="yes"/>
      <point x="25" y="372"/>
      <point x="25" y="391"/>
      <point x="31" y="395" type="curve" smooth="yes"/>
      <point x="158" y="439" type="line" smooth="yes"/>
      <point x="172" y="444"/>
      <point x="178" y="440"/>
      <point x="178" y="425" type="curve" smooth="yes"/>
      <point x="178" y="125" type="line" smooth="yes"/>
      <point x="178" y="104"/>
      <point x="178" y="87"/>
      <point x="179" y="73" type="curve" smooth="yes"/>
      <point x="181" y="35"/>
      <point x="188" y="30"/>
      <point x="229" y="30" type="curve" smooth="yes"/>
      <point x="240" y="30" type="line" smooth="yes"/>
      <point x="244" y="29"/>
      <point x="247" y="21"/>
    </contour>
    <contour>
      <point x="285" y="541" type="curve" smooth="yes"/>
      <point x="285" y="508"/>
      <point x="258" y="481"/>
      <point x="224" y="481" type="curve" smooth="yes"/>
      <point x="191" y="481"/>
      <point x="164" y="508"/>
      <point x="164" y="541" type="curve" smooth="yes"/>
      <point x="164" y="574"/>
      <point x="191" y="601"/>
      <point x="224" y="601" type="curve" smooth="yes"/>
      <point x="258" y="601"/>
      <point x="285" y="574"/>
    </contour>
    <contour>
      <point x="107" y="541" type="curve" smooth="yes"/>
      <point x="107" y="507"/>
      <point x="80" y="481"/>
      <point x="47" y="481" type="curve" smooth="yes"/>
      <point x="14" y="481"/>
      <point x="-13" y="507"/>
      <point x="-13" y="541" type="curve" smooth="yes"/>
      <point x="-13" y="574"/>
      <point x="14" y="601"/>
      <point x="47" y="601" type="curve" smooth="yes"/>
      <point x="80" y="601"/>
      <point x="107" y="574"/>
    </contour>
  </outline>
</glyph>
<glyph name="ograve" format="1">
  <advance width="495"/>
  <unicode hex="00F2"/>
  <outline>
    <contour>
      <point x="327" y="487" type="curve" smooth="yes"/>
      <point x="328" y="474"/>
      <point x="309" y="473"/>
      <point x="302" y="480" type="curve" smooth="yes"/>
      <point x="270" y="522"/>
      <point x="211" y="591"/>
      <point x="167" y="638" type="curve" smooth="yes"/>
      <point x="162" y="644"/>
      <point x="170" y="657"/>
      <point x="182" y="657" type="curve" smooth="yes"/>
      <point x="259" y="658" type="line" smooth="yes"/>
      <point x="267" y="658"/>
      <point x="273" y="658"/>
      <point x="278" y="650" type="curve" smooth="yes"/>
      <point x="295" y="605"/>
      <point x="317" y="530"/>
    </contour>
    <contour>
      <point x="476" y="206" type="curve" smooth="yes"/>
      <point x="476" y="82"/>
      <point x="377" y="-15"/>
      <point x="251" y="-15" type="curve" smooth="yes"/>
      <point x="121" y="-15"/>
      <point x="23" y="81"/>
      <point x="23" y="207" type="curve" smooth="yes"/>
      <point x="23" y="335"/>
      <point x="120" y="430"/>
      <point x="248" y="430" type="curve" smooth="yes"/>
      <point x="377" y="430"/>
      <point x="477" y="333"/>
    </contour>
    <contour>
      <point x="387" y="182" type="curve" smooth="yes"/>
      <point x="387" y="298"/>
      <point x="316" y="394"/>
      <point x="234" y="394" type="curve" smooth="yes"/>
      <point x="164" y="394"/>
      <point x="110" y="329"/>
      <point x="110" y="239" type="curve" smooth="yes"/>
      <point x="110" y="117"/>
      <point x="180" y="22"/>
      <point x="263" y="22" type="curve" smooth="yes"/>
      <point x="333" y="22"/>
      <point x="387" y="88"/>
    </contour>
  </outline>
</glyph>
<glyph name="odieresis" format="1">
  <advance width="495"/>
  <unicode hex="00F6"/>
  <outline>
    <contour>
      <point x="393" y="541" type="curve" smooth="yes"/>
      <point x="393" y="510"/>
      <point x="368" y="484"/>
      <point x="335" y="484" type="curve" smooth="yes"/>
      <point x="304" y="484"/>
      <point x="278" y="509"/>
      <point x="278" y="541" type="curve" smooth="yes"/>
      <point x="278" y="572"/>
      <point x="304" y="598"/>
      <point x="335" y="598" type="curve" smooth="yes"/>
      <point x="368" y="598"/>
      <point x="393" y="572"/>
    </contour>
    <contour>
      <point x="224" y="541" type="curve" smooth="yes"/>
      <point x="224" y="508"/>
      <point x="198" y="484"/>
      <point x="167" y="484" type="curve" smooth="yes"/>
      <point x="136" y="484"/>
      <point x="110" y="508"/>
      <point x="110" y="541" type="curve" smooth="yes"/>
      <point x="110" y="572"/>
      <point x="136" y="598"/>
      <point x="167" y="598" type="curve" smooth="yes"/>
      <point x="198" y="598"/>
      <point x="224" y="572"/>
    </contour>
    <contour>
      <point x="476" y="206" type="curve" smooth="yes"/>
      <point x="476" y="82"/>
      <point x="377" y="-15"/>
      <point x="251" y="-15" type="curve" smooth="yes"/>
      <point x="121" y="-15"/>
      <point x="23" y="81"/>
      <point x="23" y="207" type="curve" smooth="yes"/>
      <point x="23" y="335"/>
      <point x="120" y="430"/>
      <point x="248" y="430" type="curve" smooth="yes"/>
      <point x="377" y="430"/>
      <point x="477" y="333"/>
    </contour>
    <contour>
      <point x="387" y="182" type="curve" smooth="yes"/>
      <point x="387" y="298"/>
      <point x="316" y="394"/>
      <point x="234" y="394" type="curve" smooth="yes"/>
      <point x="164" y="394"/>
      <point x="110" y="329"/>
      <point x="110" y="239" type="curve" smooth="yes"/>
      <point x="110" y="117"/>
      <point x="180" y="22"/>
      <point x="263" y="22" type="curve" smooth="yes"/>
      <point x="333" y="22"/>
      <point x="387" y="88"/>
    </contour>
  </outline>
</glyph>
<glyph name="divide" format="1">
  <advance width="699"/>
  <unicode hex="00F7"/>
  <outline>
    <contour>
      <point x="392" y="551" type="curve" smooth="yes"/>
      <point x="392" y="527"/>
      <point x="373" y="508"/>
      <point x="350" y="508" type="curve" smooth="yes"/>
      <point x="326" y="508"/>
      <point x="306" y="528"/>
      <point x="307" y="553" type="curve" smooth="yes"/>
      <point x="307" y="576"/>
      <point x="328" y="592"/>
      <point x="350" y="592" type="curve" smooth="yes"/>
      <point x="373" y="592"/>
      <point x="392" y="574"/>
    </contour>
    <contour>
      <point x="631" y="326" type="line" smooth="yes"/>
      <point x="632" y="307"/>
      <point x="614" y="306"/>
      <point x="600" y="306" type="curve" smooth="yes"/>
      <point x="106" y="306" type="line" smooth="yes"/>
      <point x="95" y="306"/>
      <point x="74" y="317"/>
      <point x="74" y="328" type="curve" smooth="yes"/>
      <point x="74" y="353" type="line" smooth="yes"/>
      <point x="74" y="371"/>
      <point x="92" y="371"/>
      <point x="105" y="371" type="curve" smooth="yes"/>
      <point x="583" y="371" type="line" smooth="yes"/>
      <point x="590" y="371"/>
      <point x="596" y="371"/>
      <point x="601" y="371" type="curve" smooth="yes"/>
      <point x="606" y="371"/>
      <point x="611" y="371"/>
      <point x="615" y="370" type="curve" smooth="yes"/>
      <point x="623" y="368"/>
      <point x="628" y="364"/>
      <point x="629" y="355" type="curve" smooth="yes"/>
    </contour>
    <contour>
      <point x="392" y="130" type="curve" smooth="yes"/>
      <point x="392" y="107"/>
      <point x="374" y="87"/>
      <point x="350" y="87" type="curve" smooth="yes"/>
      <point x="327" y="87"/>
      <point x="307" y="106"/>
      <point x="307" y="130" type="curve" smooth="yes"/>
      <point x="307" y="154"/>
      <point x="327" y="172"/>
      <point x="350" y="172" type="curve" smooth="yes"/>
      <point x="374" y="172"/>
      <point x="392" y="154"/>
    </contour>
  </outline>
</glyph>
<glyph name="oslash" format="1">
  <advance width="545"/>
  <unicode hex="00F8"/>
  <outline>
    <contour>
      <point x="504" y="207" type="curve" smooth="yes"/>
      <point x="504" y="80"/>
      <point x="405" y="-17"/>
      <point x="278" y="-17" type="curve" smooth="yes"/>
      <point x="232" y="-17"/>
      <point x="187" y="-4"/>
      <point x="147" y="21" type="curve" smooth="yes"/>
      <point x="142" y="24"/>
      <point x="137" y="24"/>
      <point x="132" y="18" type="curve" smooth="yes"/>
      <point x="78" y="-49" type="line" smooth="yes"/>
      <point x="73" y="-54"/>
      <point x="67" y="-54"/>
      <point x="62" y="-49" type="curve" smooth="yes"/>
      <point x="51" y="-40" type="line" smooth="yes"/>
      <point x="47" y="-37"/>
      <point x="51" y="-29"/>
      <point x="54" y="-25" type="curve" smooth="yes"/>
      <point x="107" y="36" type="line" smooth="yes"/>
      <point x="112" y="42"/>
      <point x="115" y="46"/>
      <point x="110" y="51" type="curve" smooth="yes"/>
      <point x="67" y="93"/>
      <point x="46" y="144"/>
      <point x="46" y="206" type="curve" smooth="yes"/>
      <point x="46" y="336"/>
      <point x="144" y="432"/>
      <point x="275" y="432" type="curve" smooth="yes"/>
      <point x="324" y="432"/>
      <point x="366" y="419"/>
      <point x="408" y="392" type="curve" smooth="yes"/>
      <point x="411" y="390"/>
      <point x="420" y="396"/>
      <point x="421" y="398" type="curve" smooth="yes"/>
      <point x="466" y="451" type="line" smooth="yes"/>
      <point x="470" y="455"/>
      <point x="474" y="455"/>
      <point x="478" y="451" type="curve" smooth="yes"/>
      <point x="478" y="451"/>
      <point x="488" y="443"/>
      <point x="488" y="442" type="curve" smooth="yes"/>
      <point x="495" y="435"/>
      <point x="485" y="425"/>
      <point x="481" y="421" type="curve" smooth="yes"/>
      <point x="462" y="399"/>
      <point x="469" y="407"/>
      <point x="443" y="376" type="curve" smooth="yes"/>
      <point x="441" y="374"/>
      <point x="437" y="368"/>
      <point x="441" y="364" type="curve" smooth="yes"/>
      <point x="484" y="320"/>
      <point x="504" y="270"/>
    </contour>
    <contour>
      <point x="361" y="330" type="line" smooth="yes"/>
      <point x="366" y="336"/>
      <point x="364" y="340"/>
      <point x="361" y="344" type="curve" smooth="yes"/>
      <point x="333" y="378"/>
      <point x="298" y="396"/>
      <point x="261" y="396" type="curve" smooth="yes"/>
      <point x="189" y="396"/>
      <point x="136" y="331"/>
      <point x="136" y="238" type="curve" smooth="yes"/>
      <point x="136" y="195"/>
      <point x="144" y="153"/>
      <point x="162" y="116" type="curve" smooth="yes"/>
      <point x="164" y="113"/>
      <point x="173" y="112"/>
      <point x="177" y="118" type="curve" smooth="yes"/>
    </contour>
    <contour>
      <point x="416" y="182" type="curve" smooth="yes"/>
      <point x="416" y="221"/>
      <point x="407" y="260"/>
      <point x="388" y="298" type="curve" smooth="yes"/>
      <point x="386" y="303"/>
      <point x="382" y="306"/>
      <point x="378" y="302" type="curve" smooth="yes"/>
      <point x="190" y="84" type="line" smooth="yes"/>
      <point x="186" y="80"/>
      <point x="187" y="75"/>
      <point x="190" y="72" type="curve" smooth="yes"/>
      <point x="218" y="38"/>
      <point x="253" y="20"/>
      <point x="289" y="20" type="curve" smooth="yes"/>
      <point x="360" y="20"/>
      <point x="416" y="87"/>
    </contour>
  </outline>
</glyph>
<glyph name="uacute" format="1">
  <advance width="534"/>
  <unicode hex="00FA"/>
  <outline>
    <contour>
      <point x="386" y="652" type="curve" smooth="yes"/>
      <point x="386" y="650"/>
      <point x="385" y="648"/>
      <point x="385" y="647" type="curve" smooth="yes"/>
      <point x="242" y="475" type="line" smooth="yes"/>
      <point x="235" y="468"/>
      <point x="211" y="468"/>
      <point x="216" y="484" type="curve" smooth="yes"/>
      <point x="265" y="648" type="line" smooth="yes"/>
      <point x="269" y="656"/>
      <point x="277" y="661"/>
      <point x="283" y="661" type="curve" smooth="yes"/>
      <point x="372" y="661" type="line" smooth="yes"/>
      <point x="379" y="661"/>
      <point x="388" y="660"/>
    </contour>
    <contour>
      <point x="513" y="31" type="curve" smooth="yes"/>
      <point x="483" y="18"/>
      <point x="433" y="2"/>
      <point x="399" y="-5" type="curve" smooth="yes"/>
      <point x="384" y="-8"/>
      <point x="372" y="-10"/>
      <point x="371" y="9" type="curve" smooth="yes"/>
      <point x="369" y="48" type="line" smooth="yes"/>
      <point x="369" y="51"/>
      <point x="366" y="67"/>
      <point x="362" y="63" type="curve" smooth="yes"/>
      <point x="314" y="28"/>
      <point x="263" y="-10"/>
      <point x="201" y="-10" type="curve" smooth="yes"/>
      <point x="123" y="-10"/>
      <point x="88" y="43"/>
      <point x="88" y="128" type="curve" smooth="yes"/>
      <point x="88" y="339" type="line" smooth="yes"/>
      <point x="88" y="360"/>
      <point x="86" y="371"/>
      <point x="66" y="376" type="curve" smooth="yes"/>
      <point x="53" y="381"/>
      <point x="39" y="384"/>
      <point x="26" y="388" type="curve" smooth="yes"/>
      <point x="21" y="389"/>
      <point x="14" y="410"/>
      <point x="26" y="413" type="curve" smooth="yes"/>
      <point x="57" y="420"/>
      <point x="116" y="436"/>
      <point x="151" y="443" type="curve" smooth="yes"/>
      <point x="163" y="445"/>
      <point x="167" y="432"/>
      <point x="167" y="424" type="curve" smooth="yes"/>
      <point x="167" y="184" type="line" smooth="yes"/>
      <point x="167" y="76"/>
      <point x="188" y="49"/>
      <point x="255" y="49" type="curve" smooth="yes"/>
      <point x="286" y="49"/>
      <point x="328" y="68"/>
      <point x="367" y="99" type="curve" smooth="yes"/>
      <point x="367" y="100"/>
      <point x="371" y="110"/>
      <point x="371" y="118" type="curve" smooth="yes"/>
      <point x="371" y="291" type="line" smooth="yes"/>
      <point x="371" y="311"/>
      <point x="372" y="331"/>
      <point x="368" y="350" type="curve" smooth="yes"/>
      <point x="364" y="366"/>
      <point x="355" y="378"/>
      <point x="338" y="381" type="curve" smooth="yes"/>
      <point x="325" y="384"/>
      <point x="322" y="384"/>
      <point x="316" y="386" type="curve" smooth="yes"/>
      <point x="311" y="387"/>
      <point x="303" y="388"/>
      <point x="283" y="391" type="curve" smooth="yes"/>
      <point x="275" y="395"/>
      <point x="277" y="415"/>
      <point x="285" y="417" type="curve" smooth="yes"/>
      <point x="326" y="426"/>
      <point x="392" y="440"/>
      <point x="428" y="444" type="curve" smooth="yes"/>
      <point x="439" y="445"/>
      <point x="448" y="441"/>
      <point x="448" y="428" type="curve" smooth="yes"/>
      <point x="448" y="110" type="line"/>
      <point x="448" y="79" type="line" smooth="yes"/>
      <point x="448" y="48"/>
      <point x="471" y="52"/>
      <point x="491" y="57" type="curve" smooth="yes"/>
      <point x="498" y="59"/>
      <point x="505" y="61"/>
      <point x="512" y="63" type="curve" smooth="yes"/>
      <point x="524" y="65"/>
      <point x="525" y="33"/>
    </contour>
  </outline>
</glyph>
<glyph name="ucircumflex" format="1">
  <advance width="534"/>
  <unicode hex="00FB"/>
  <outline>
    <contour>
      <point x="513" y="31" type="curve" smooth="yes"/>
      <point x="483" y="18"/>
      <point x="433" y="2"/>
      <point x="399" y="-5" type="curve" smooth="yes"/>
      <point x="384" y="-8"/>
      <point x="372" y="-10"/>
      <point x="371" y="9" type="curve" smooth="yes"/>
      <point x="369" y="48" type="line" smooth="yes"/>
      <point x="369" y="51"/>
      <point x="366" y="67"/>
      <point x="362" y="63" type="curve" smooth="yes"/>
      <point x="314" y="28"/>
      <point x="263" y="-10"/>
      <point x="201" y="-10" type="curve" smooth="yes"/>
      <point x="123" y="-10"/>
      <point x="88" y="43"/>
      <point x="88" y="128" type="curve" smooth="yes"/>
      <point x="88" y="339" type="line" smooth="yes"/>
      <point x="88" y="360"/>
      <point x="86" y="371"/>
      <point x="66" y="376" type="curve" smooth="yes"/>
      <point x="53" y="381"/>
      <point x="39" y="384"/>
      <point x="26" y="388" type="curve" smooth="yes"/>
      <point x="21" y="389"/>
      <point x="14" y="410"/>
      <point x="26" y="413" type="curve" smooth="yes"/>
      <point x="57" y="420"/>
      <point x="116" y="436"/>
      <point x="151" y="443" type="curve" smooth="yes"/>
      <point x="163" y="445"/>
      <point x="167" y="432"/>
      <point x="167" y="424" type="curve" smooth="yes"/>
      <point x="167" y="184" type="line" smooth="yes"/>
      <point x="167" y="76"/>
      <point x="188" y="49"/>
      <point x="255" y="49" type="curve" smooth="yes"/>
      <point x="286" y="49"/>
      <point x="328" y="68"/>
      <point x="367" y="99" type="curve" smooth="yes"/>
      <point x="367" y="100"/>
      <point x="371" y="110"/>
      <point x="371" y="118" type="curve" smooth="yes"/>
      <point x="371" y="291" type="line" smooth="yes"/>
      <point x="371" y="311"/>
      <point x="372" y="331"/>
      <point x="368" y="350" type="curve" smooth="yes"/>
      <point x="364" y="366"/>
      <point x="355" y="378"/>
      <point x="338" y="381" type="curve" smooth="yes"/>
      <point x="325" y="384"/>
      <point x="322" y="384"/>
      <point x="316" y="386" type="curve" smooth="yes"/>
      <point x="311" y="387"/>
      <point x="303" y="388"/>
      <point x="283" y="391" type="curve" smooth="yes"/>
      <point x="275" y="395"/>
      <point x="277" y="415"/>
      <point x="285" y="417" type="curve" smooth="yes"/>
      <point x="326" y="426"/>
      <point x="392" y="440"/>
      <point x="428" y="444" type="curve" smooth="yes"/>
      <point x="439" y="445"/>
      <point x="448" y="441"/>
      <point x="448" y="428" type="curve" smooth="yes"/>
      <point x="448" y="110" type="line"/>
      <point x="448" y="79" type="line" smooth="yes"/>
      <point x="448" y="48"/>
      <point x="471" y="52"/>
      <point x="491" y="57" type="curve" smooth="yes"/>
      <point x="498" y="59"/>
      <point x="505" y="61"/>
      <point x="512" y="63" type="curve" smooth="yes"/>
      <point x="524" y="65"/>
      <point x="525" y="33"/>
    </contour>
    <contour>
      <point x="387" y="486" type="line" smooth="yes"/>
      <point x="389" y="481"/>
      <point x="392" y="474"/>
      <point x="386" y="473" type="curve" smooth="yes"/>
      <point x="379" y="471"/>
      <point x="369" y="472"/>
      <point x="366" y="475" type="curve" smooth="yes"/>
      <point x="244" y="579" type="line"/>
      <point x="129" y="475" type="line" smooth="yes"/>
      <point x="121" y="468"/>
      <point x="101" y="473"/>
      <point x="105" y="481" type="curve" smooth="yes"/>
      <point x="194" y="637" type="line" smooth="yes"/>
      <point x="197" y="642"/>
      <point x="202" y="645"/>
      <point x="207" y="647" type="curve" smooth="yes"/>
      <point x="214" y="648"/>
      <point x="269" y="649"/>
      <point x="282" y="648" type="curve" smooth="yes"/>
      <point x="292" y="647"/>
      <point x="294" y="646"/>
      <point x="299" y="638" type="curve" smooth="yes"/>
    </contour>
  </outline>
</glyph>
<glyph name="dotlessi" format="1">
  <advance width="272"/>
  <unicode hex="0131"/>
  <outline>
    <contour>
      <point x="246" y="13" type="curve" smooth="yes"/>
      <point x="246" y="6"/>
      <point x="242" y="-2"/>
      <point x="240" y="-2" type="curve" smooth="yes"/>
      <point x="189" y="-1"/>
      <point x="96" y="-1"/>
      <point x="29" y="-2" type="curve" smooth="yes"/>
      <point x="25" y="-3"/>
      <point x="21" y="5"/>
      <point x="20" y="13" type="curve" smooth="yes"/>
      <point x="19" y="21"/>
      <point x="21" y="30"/>
      <point x="27" y="30" type="curve" smooth="yes"/>
      <point x="40" y="30" type="line" smooth="yes"/>
      <point x="99" y="30"/>
      <point x="100" y="40"/>
      <point x="100" y="125" type="curve" smooth="yes"/>
      <point x="100" y="304" type="line" smooth="yes"/>
      <point x="100" y="354"/>
      <point x="98" y="354"/>
      <point x="73" y="359" type="curve" smooth="yes"/>
      <point x="58" y="362"/>
      <point x="46" y="365"/>
      <point x="32" y="370" type="curve" smooth="yes"/>
      <point x="25" y="372"/>
      <point x="25" y="391"/>
      <point x="31" y="395" type="curve" smooth="yes"/>
      <point x="158" y="439" type="line" smooth="yes"/>
      <point x="172" y="444"/>
      <point x="178" y="440"/>
      <point x="178" y="425" type="curve" smooth="yes"/>
      <point x="178" y="125" type="line" smooth="yes"/>
      <point x="178" y="104"/>
      <point x="178" y="87"/>
      <point x="179" y="73" type="curve" smooth="yes"/>
      <point x="181" y="35"/>
      <point x="188" y="30"/>
      <point x="229" y="30" type="curve" smooth="yes"/>
      <point x="240" y="30" type="line" smooth="yes"/>
      <point x="244" y="29"/>
      <point x="247" y="21"/>
    </contour>
  </outline>
</glyph>
<glyph name="oe" format="1">
  <advance width="775"/>
  <unicode hex="0153"/>
  <outline>
    <contour>
      <point x="747" y="275" type="line" smooth="yes"/>
      <point x="747" y="266"/>
      <point x="738" y="265"/>
      <point x="734" y="265" type="curve" smooth="yes"/>
      <point x="493" y="265" type="line" smooth="yes"/>
      <point x="480" y="265"/>
      <point x="465" y="266"/>
      <point x="465" y="250" type="curve" smooth="yes"/>
      <point x="465" y="131"/>
      <point x="527" y="40"/>
      <point x="600" y="40" type="curve" smooth="yes"/>
      <point x="630" y="40"/>
      <point x="666" y="62"/>
      <point x="716" y="112" type="curve" smooth="yes"/>
      <point x="726" y="122"/>
      <point x="731" y="112"/>
      <point x="737" y="105" type="curve" smooth="yes"/>
      <point x="743" y="99"/>
      <point x="740" y="93"/>
      <point x="735" y="88" type="curve" smooth="yes"/>
      <point x="710" y="60"/>
      <point x="679" y="34"/>
      <point x="650" y="14" type="curve" smooth="yes"/>
      <point x="619" y="-6"/>
      <point x="587" y="-17"/>
      <point x="554" y="-17" type="curve" smooth="yes"/>
      <point x="509" y="-17"/>
      <point x="469" y="5"/>
      <point x="439" y="48" type="curve" smooth="yes"/>
      <point x="436" y="51"/>
      <point x="431" y="52"/>
      <point x="428" y="48" type="curve" smooth="yes"/>
      <point x="389" y="4"/>
      <point x="339" y="-17"/>
      <point x="276" y="-17" type="curve" smooth="yes"/>
      <point x="147" y="-17"/>
      <point x="48" y="81"/>
      <point x="48" y="209" type="curve" smooth="yes"/>
      <point x="48" y="333"/>
      <point x="148" y="431"/>
      <point x="274" y="431" type="curve" smooth="yes"/>
      <point x="331" y="431"/>
      <point x="381" y="410"/>
      <point x="415" y="369" type="curve" smooth="yes"/>
      <point x="420" y="363"/>
      <point x="427" y="364"/>
      <point x="434" y="371" type="curve" smooth="yes"/>
      <point x="475" y="413"/>
      <point x="518" y="431"/>
      <point x="574" y="431" type="curve" smooth="yes"/>
      <point x="647" y="431"/>
      <point x="694" y="400"/>
      <point x="719" y="334" type="curve" smooth="yes"/>
      <point x="728" y="312"/>
      <point x="733" y="303"/>
      <point x="747" y="290" type="curve"/>
    </contour>
    <contour>
      <point x="639" y="311" type="curve" smooth="yes"/>
      <point x="634" y="365"/>
      <point x="600" y="402"/>
      <point x="558" y="402" type="curve" smooth="yes"/>
      <point x="514" y="402"/>
      <point x="482" y="370"/>
      <point x="471" y="307" type="curve" smooth="yes"/>
      <point x="470" y="301"/>
      <point x="484" y="297"/>
      <point x="494" y="297" type="curve" smooth="yes"/>
      <point x="626" y="297" type="line" smooth="yes"/>
      <point x="635" y="297"/>
      <point x="640" y="302"/>
    </contour>
    <contour>
      <point x="390" y="181" type="curve" smooth="yes"/>
      <point x="390" y="310"/>
      <point x="332" y="396"/>
      <point x="256" y="396" type="curve" smooth="yes"/>
      <point x="190" y="396"/>
      <point x="136" y="328"/>
      <point x="136" y="234" type="curve" smooth="yes"/>
      <point x="136" y="119"/>
      <point x="208" y="20"/>
      <point x="285" y="20" type="curve" smooth="yes"/>
      <point x="349" y="20"/>
      <point x="390" y="77"/>
    </contour>
  </outline>
</glyph>
<glyph name="scaron" format="1">
  <advance width="316"/>
  <unicode hex="0161"/>
  <outline>
    <contour>
      <point x="310" y="657" type="curve" smooth="yes"/>
      <point x="213" y="486" type="line" smooth="yes"/>
      <point x="210" y="482"/>
      <point x="207" y="481"/>
      <point x="199" y="481" type="curve" smooth="yes"/>
      <point x="123" y="481" type="line" smooth="yes"/>
      <point x="112" y="481"/>
      <point x="107" y="484"/>
      <point x="106" y="489" type="curve" smooth="yes"/>
      <point x="9" y="656" type="line" smooth="yes"/>
      <point x="8" y="659"/>
      <point x="9" y="661"/>
      <point x="11" y="662" type="curve" smooth="yes"/>
      <point x="13" y="663"/>
      <point x="16" y="663"/>
      <point x="19" y="663" type="curve" smooth="yes"/>
      <point x="25" y="663"/>
      <point x="33" y="662"/>
      <point x="36" y="658" type="curve" smooth="yes"/>
      <point x="170" y="553" type="line"/>
      <point x="283" y="658" type="line" smooth="yes"/>
      <point x="286" y="660"/>
      <point x="293" y="662"/>
      <point x="298" y="662" type="curve" smooth="yes"/>
      <point x="305" y="662"/>
      <point x="311" y="660"/>
    </contour>
    <contour>
      <point x="285" y="113" type="curve" smooth="yes"/>
      <point x="285" y="43"/>
      <point x="226" y="-10"/>
      <point x="154" y="-10" type="curve" smooth="yes"/>
      <point x="138" y="-10"/>
      <point x="118" y="-7"/>
      <point x="104" y="-3" type="curve" smooth="yes"/>
      <point x="98" y="-1"/>
      <point x="90" y="3"/>
      <point x="84" y="4" type="curve" smooth="yes"/>
      <point x="80" y="4"/>
      <point x="75" y="1"/>
      <point x="71" y="-9" type="curve"/>
      <point x="65" y="-11"/>
      <point x="61" y="-14"/>
      <point x="55" y="-12" type="curve" smooth="yes"/>
      <point x="49" y="-11"/>
      <point x="46" y="-9"/>
      <point x="45" y="-2" type="curve" smooth="yes"/>
      <point x="41" y="28"/>
      <point x="35" y="81"/>
      <point x="36" y="112" type="curve" smooth="yes"/>
      <point x="35" y="121"/>
      <point x="47" y="121"/>
      <point x="56" y="120" type="curve" smooth="yes"/>
      <point x="61" y="118"/>
      <point x="62" y="114"/>
      <point x="63" y="110" type="curve" smooth="yes"/>
      <point x="77" y="49"/>
      <point x="109" y="20"/>
      <point x="151" y="20" type="curve" smooth="yes"/>
      <point x="187" y="20"/>
      <point x="216" y="49"/>
      <point x="216" y="84" type="curve" smooth="yes"/>
      <point x="216" y="133"/>
      <point x="162" y="164"/>
      <point x="126" y="189" type="curve" smooth="yes"/>
      <point x="81" y="219"/>
      <point x="34" y="254"/>
      <point x="34" y="313" type="curve" smooth="yes"/>
      <point x="34" y="385"/>
      <point x="91" y="435"/>
      <point x="169" y="435" type="curve" smooth="yes"/>
      <point x="196" y="435"/>
      <point x="224" y="428"/>
      <point x="253" y="416" type="curve"/>
      <point x="255" y="390"/>
      <point x="257" y="340"/>
      <point x="255" y="314" type="curve" smooth="yes"/>
      <point x="255" y="312"/>
      <point x="248" y="309"/>
      <point x="241" y="309" type="curve" smooth="yes"/>
      <point x="234" y="309"/>
      <point x="227" y="311"/>
      <point x="228" y="314" type="curve" smooth="yes"/>
      <point x="218" y="369"/>
      <point x="189" y="398"/>
      <point x="153" y="398" type="curve" smooth="yes"/>
      <point x="121" y="398"/>
      <point x="98" y="375"/>
      <point x="98" y="345" type="curve" smooth="yes"/>
      <point x="98" y="316"/>
      <point x="125" y="290"/>
      <point x="158" y="266" type="curve" smooth="yes"/>
      <point x="189" y="243"/>
      <point x="225" y="225"/>
      <point x="251" y="196" type="curve" smooth="yes"/>
      <point x="271" y="174"/>
      <point x="285" y="142"/>
    </contour>
  </outline>
</glyph>
<glyph name="zcaron" format="1">
  <advance width="425"/>
  <unicode hex="017E"/>
  <outline>
    <contour>
      <point x="364" y="657" type="curve" smooth="yes"/>
      <point x="267" y="486" type="line" smooth="yes"/>
      <point x="264" y="482"/>
      <point x="261" y="481"/>
      <point x="254" y="481" type="curve" smooth="yes"/>
      <point x="177" y="481" type="line" smooth="yes"/>
      <point x="166" y="481"/>
      <point x="161" y="484"/>
      <point x="160" y="489" type="curve" smooth="yes"/>
      <point x="63" y="656" type="line" smooth="yes"/>
      <point x="62" y="659"/>
      <point x="64" y="661"/>
      <point x="66" y="662" type="curve" smooth="yes"/>
      <point x="68" y="663"/>
      <point x="70" y="663"/>
      <point x="73" y="663" type="curve" smooth="yes"/>
      <point x="79" y="663"/>
      <point x="87" y="662"/>
      <point x="90" y="658" type="curve" smooth="yes"/>
      <point x="224" y="553" type="line"/>
      <point x="337" y="658" type="line" smooth="yes"/>
      <point x="340" y="660"/>
      <point x="347" y="662"/>
      <point x="353" y="662" type="curve" smooth="yes"/>
      <point x="359" y="662"/>
      <point x="365" y="660"/>
    </contour>
    <contour>
      <point x="395" y="118" type="curve" smooth="yes"/>
      <point x="354" y="6" type="line" smooth="yes"/>
      <point x="352" y="2"/>
      <point x="347" y="-1"/>
      <point x="343" y="-2" type="curve" smooth="yes"/>
      <point x="262" y="-4"/>
      <point x="100" y="-4"/>
      <point x="21" y="-2" type="curve" smooth="yes"/>
      <point x="17" y="-2"/>
      <point x="14" y="9"/>
      <point x="15" y="17" type="curve" smooth="yes"/>
      <point x="16" y="22"/>
      <point x="20" y="24"/>
      <point x="23" y="29" type="curve" smooth="yes"/>
      <point x="266" y="360" type="line" smooth="yes"/>
      <point x="268" y="365"/>
      <point x="262" y="368"/>
      <point x="259" y="369" type="curve" smooth="yes"/>
      <point x="213" y="370"/>
      <point x="166" y="366"/>
      <point x="119" y="366" type="curve" smooth="yes"/>
      <point x="92" y="366"/>
      <point x="82" y="358"/>
      <point x="61" y="273" type="curve" smooth="yes"/>
      <point x="58" y="266"/>
      <point x="45" y="266"/>
      <point x="38" y="269" type="curve" smooth="yes"/>
      <point x="29" y="272"/>
      <point x="31" y="276"/>
      <point x="32" y="283" type="curve" smooth="yes"/>
      <point x="41" y="333"/>
      <point x="55" y="413"/>
      <point x="62" y="442" type="curve" smooth="yes"/>
      <point x="64" y="446"/>
      <point x="90" y="447"/>
      <point x="90" y="441" type="curve" smooth="yes"/>
      <point x="90" y="420"/>
      <point x="93" y="414"/>
      <point x="133" y="415" type="curve" smooth="yes"/>
      <point x="192" y="416"/>
      <point x="304" y="418"/>
      <point x="361" y="417" type="curve" smooth="yes"/>
      <point x="370" y="417"/>
      <point x="375" y="420"/>
      <point x="382" y="413" type="curve"/>
      <point x="384" y="404"/>
      <point x="384" y="395"/>
      <point x="380" y="390" type="curve" smooth="yes"/>
      <point x="295" y="279"/>
      <point x="172" y="108"/>
      <point x="135" y="54" type="curve" smooth="yes"/>
      <point x="133" y="49"/>
      <point x="143" y="46"/>
      <point x="147" y="47" type="curve" smooth="yes"/>
      <point x="182" y="44"/>
      <point x="238" y="43"/>
      <point x="298" y="47" type="curve" smooth="yes"/>
      <point x="333" y="49"/>
      <point x="341" y="61"/>
      <point x="364" y="115" type="curve"/>
      <point x="368" y="120" type="line" smooth="yes"/>
      <point x="372" y="130"/>
      <point x="399" y="129"/>
    </contour>
  </outline>
</glyph>
<glyph name="circumflex" format="1">
  <advance width="349"/>
  <unicode hex="02C6"/>
  <outline>
    <contour>
      <point x="313" y="486" type="line" smooth="yes"/>
      <point x="315" y="481"/>
      <point x="316" y="478"/>
      <point x="312" y="473" type="curve" smooth="yes"/>
      <point x="304" y="467"/>
      <point x="295" y="472"/>
      <point x="292" y="475" type="curve" smooth="yes"/>
      <point x="172" y="579" type="line"/>
      <point x="58" y="475" type="line" smooth="yes"/>
      <point x="46" y="464"/>
      <point x="30" y="473"/>
      <point x="34" y="481" type="curve" smooth="yes"/>
      <point x="123" y="637" type="line" smooth="yes"/>
      <point x="126" y="642"/>
      <point x="131" y="645"/>
      <point x="136" y="647" type="curve" smooth="yes"/>
      <point x="143" y="648"/>
      <point x="195" y="649"/>
      <point x="208" y="648" type="curve" smooth="yes"/>
      <point x="218" y="647"/>
      <point x="220" y="646"/>
      <point x="225" y="638" type="curve" smooth="yes"/>
    </contour>
  </outline>
</glyph>
<glyph name="caron" format="1">
  <advance width="349"/>
  <unicode hex="02C7"/>
  <outline>
    <contour>
      <point x="326" y="657" type="curve" smooth="yes"/>
      <point x="229" y="486" type="line" smooth="yes"/>
      <point x="225" y="482"/>
      <point x="223" y="481"/>
      <point x="215" y="481" type="curve" smooth="yes"/>
      <point x="139" y="481" type="line" smooth="yes"/>
      <point x="128" y="481"/>
      <point x="122" y="484"/>
      <point x="121" y="489" type="curve" smooth="yes"/>
      <point x="25" y="656" type="line" smooth="yes"/>
      <point x="23" y="659"/>
      <point x="25" y="661"/>
      <point x="27" y="662" type="curve" smooth="yes"/>
      <point x="29" y="663"/>
      <point x="32" y="663"/>
      <point x="35" y="663" type="curve" smooth="yes"/>
      <point x="41" y="663"/>
      <point x="48" y="662"/>
      <point x="51" y="658" type="curve" smooth="yes"/>
      <point x="186" y="553" type="line"/>
      <point x="299" y="658" type="line" smooth="yes"/>
      <point x="301" y="660"/>
      <point x="308" y="662"/>
      <point x="314" y="662" type="curve" smooth="yes"/>
      <point x="320" y="662"/>
      <point x="326" y="660"/>
    </contour>
  </outline>
</glyph>
<glyph name="ogonek" format="1">
  <advance width="349"/>
  <unicode hex="02DB"/>
  <outline>
    <contour>
      <point x="318" y="-148" type="line"/>
      <point x="255" y="-184"/>
      <point x="234" y="-191"/>
      <point x="194" y="-191" type="curve" smooth="yes"/>
      <point x="123" y="-191"/>
      <point x="73" y="-152"/>
      <point x="73" y="-90" type="curve" smooth="yes"/>
      <point x="73" y="-53"/>
      <point x="89" y="-14"/>
      <point x="116" y="13" type="curve"/>
      <point x="155" y="13" type="line"/>
      <point x="140" y="-16"/>
      <point x="138" y="-26"/>
      <point x="138" y="-44" type="curve" smooth="yes"/>
      <point x="138" y="-97"/>
      <point x="180" y="-137"/>
      <point x="239" y="-137" type="curve" smooth="yes"/>
      <point x="259" y="-137"/>
      <point x="276" y="-133"/>
      <point x="302" y="-124" type="curve"/>
    </contour>
  </outline>
</glyph>
<glyph name="tilde" format="1">
  <advance width="349"/>
  <unicode hex="02DC"/>
  <outline>
    <contour>
      <point x="336" y="593" type="curve" smooth="yes"/>
      <point x="336" y="522"/>
      <point x="295" y="469"/>
      <point x="237" y="469" type="curve" smooth="yes"/>
      <point x="210" y="469"/>
      <point x="178" y="482"/>
      <point x="140" y="508" type="curve" smooth="yes"/>
      <point x="103" y="534"/>
      <point x="94" y="537"/>
      <point x="81" y="537" type="curve" smooth="yes"/>
      <point x="62" y="537"/>
      <point x="52" y="526"/>
      <point x="44" y="490" type="curve" smooth="yes"/>
      <point x="44" y="486"/>
      <point x="42" y="482"/>
      <point x="41" y="472" type="curve" smooth="yes"/>
      <point x="37" y="464"/>
      <point x="16" y="459"/>
      <point x="14" y="472" type="curve" smooth="yes"/>
      <point x="18" y="558"/>
      <point x="51" y="607"/>
      <point x="112" y="607" type="curve" smooth="yes"/>
      <point x="142" y="607"/>
      <point x="165" y="598"/>
      <point x="210" y="567" type="curve" smooth="yes"/>
      <point x="241" y="546"/>
      <point x="257" y="540"/>
      <point x="269" y="540" type="curve" smooth="yes"/>
      <point x="290" y="540"/>
      <point x="301" y="552"/>
      <point x="309" y="606" type="curve" smooth="yes"/>
      <point x="309" y="610"/>
      <point x="316" y="612"/>
      <point x="322" y="612" type="curve" smooth="yes"/>
      <point x="328" y="613"/>
      <point x="334" y="610"/>
      <point x="334" y="606" type="curve" smooth="yes"/>
      <point x="336" y="600"/>
      <point x="336" y="596"/>
    </contour>
  </outline>
</glyph>
<glyph name="emdash" format="1">
  <advance width="855"/>
  <unicode hex="2014"/>
  <outline>
    <contour>
      <point x="763" y="250" type="curve" smooth="yes"/>
      <point x="768" y="235"/>
      <point x="762" y="229"/>
      <point x="761" y="212" type="curve" smooth="yes"/>
      <point x="759" y="208"/>
      <point x="754" y="200"/>
      <point x="747" y="201" type="curve" smooth="yes"/>
      <point x="535" y="204"/>
      <point x="265" y="204"/>
      <point x="101" y="201" type="curve" smooth="yes"/>
      <point x="94" y="200"/>
      <point x="84" y="204"/>
      <point x="85" y="214" type="curve" smooth="yes"/>
      <point x="85" y="224"/>
      <point x="82" y="228"/>
      <point x="83" y="242" type="curve" smooth="yes"/>
      <point x="83" y="248"/>
      <point x="88" y="261"/>
      <point x="105" y="261" type="curve" smooth="yes"/>
      <point x="273" y="264"/>
      <point x="590" y="264"/>
      <point x="746" y="261" type="curve" smooth="yes"/>
      <point x="753" y="259"/>
      <point x="762" y="256"/>
    </contour>
  </outline>
</glyph>
<glyph name="f_f_i" format="1">
  <advance width="880"/>
  <unicode hex="FB03"/>
  <outline>
    <contour>
      <point x="855" y="-4" type="curve" smooth="yes"/>
      <point x="800" y="-2"/>
      <point x="711" y="-2"/>
      <point x="641" y="-4" type="curve" smooth="yes"/>
      <point x="636" y="-4"/>
      <point x="634" y="4"/>
      <point x="634" y="12" type="curve" smooth="yes"/>
      <point x="634" y="25"/>
      <point x="635" y="33"/>
      <point x="650" y="31" type="curve" smooth="yes"/>
      <point x="706" y="31"/>
      <point x="711" y="35"/>
      <point x="711" y="132" type="curve" smooth="yes"/>
      <point x="711" y="286" type="line" smooth="yes"/>
      <point x="711" y="328"/>
      <point x="699" y="361"/>
      <point x="650" y="362" type="curve" smooth="yes"/>
      <point x="619" y="363"/>
      <point x="550" y="365"/>
      <point x="510" y="363" type="curve" smooth="yes"/>
      <point x="499" y="362"/>
      <point x="491" y="350"/>
      <point x="490" y="344" type="curve" smooth="yes"/>
      <point x="489" y="132" type="line" smooth="yes"/>
      <point x="489" y="55"/>
      <point x="489" y="31"/>
      <point x="551" y="31" type="curve" smooth="yes"/>
      <point x="571" y="31" type="line" smooth="yes"/>
      <point x="587" y="31"/>
      <point x="587" y="25"/>
      <point x="587" y="12" type="curve" smooth="yes"/>
      <point x="587" y="4"/>
      <point x="584" y="-4"/>
      <point x="581" y="-4" type="curve" smooth="yes"/>
      <point x="485" y="-2"/>
      <point x="410" y="-3"/>
      <point x="341" y="-5" type="curve" smooth="yes"/>
      <point x="335" y="-5"/>
      <point x="333" y="3"/>
      <point x="333" y="10" type="curve" smooth="yes"/>
      <point x="333" y="17"/>
      <point x="335" y="27"/>
      <point x="341" y="29" type="curve" smooth="yes"/>
      <point x="349" y="29" type="line" smooth="yes"/>
      <point x="402" y="29"/>
      <point x="407" y="30"/>
      <point x="407" y="130" type="curve" smooth="yes"/>
      <point x="407" y="331" type="line" smooth="yes"/>
      <point x="405" y="339"/>
      <point x="401" y="356"/>
      <point x="391" y="357" type="curve" smooth="yes"/>
      <point x="344" y="360"/>
      <point x="236" y="360"/>
      <point x="206" y="356" type="curve" smooth="yes"/>
      <point x="197" y="355"/>
      <point x="191" y="345"/>
      <point x="190" y="334" type="curve" smooth="yes"/>
      <point x="190" y="255"/>
      <point x="188" y="168"/>
      <point x="190" y="86" type="curve" smooth="yes"/>
      <point x="191" y="41"/>
      <point x="203" y="32"/>
      <point x="251" y="32" type="curve" smooth="yes"/>
      <point x="261" y="32"/>
      <point x="271" y="33"/>
      <point x="281" y="31" type="curve" smooth="yes"/>
      <point x="293" y="26"/>
      <point x="289" y="-6"/>
      <point x="281" y="-5" type="curve" smooth="yes"/>
      <point x="186" y="-2"/>
      <point x="96" y="-2"/>
      <point x="28" y="-5" type="curve" smooth="yes"/>
      <point x="19" y="-5"/>
      <point x="12" y="25"/>
      <point x="31" y="29" type="curve" smooth="yes"/>
      <point x="37" y="30"/>
      <point x="41" y="29"/>
      <point x="42" y="29" type="curve" smooth="yes"/>
      <point x="94" y="29"/>
      <point x="106" y="40"/>
      <point x="106" y="92" type="curve" smooth="yes"/>
      <point x="106" y="334" type="line" smooth="yes"/>
      <point x="106" y="343"/>
      <point x="94" y="352"/>
      <point x="89" y="352" type="curve" smooth="yes"/>
      <point x="46" y="352" type="line" smooth="yes"/>
      <point x="38" y="352"/>
      <point x="29" y="350"/>
      <point x="26" y="359" type="curve" smooth="yes"/>
      <point x="24" y="365"/>
      <point x="24" y="378"/>
      <point x="26" y="382" type="curve" smooth="yes"/>
      <point x="30" y="385"/>
      <point x="36" y="387"/>
      <point x="38" y="388" type="curve" smooth="yes"/>
      <point x="64" y="393"/>
      <point x="84" y="397"/>
      <point x="107" y="412" type="curve"/>
      <point x="109" y="439"/>
      <point x="111" y="462"/>
      <point x="113" y="481" type="curve" smooth="yes"/>
      <point x="116" y="501"/>
      <point x="118" y="518"/>
      <point x="124" y="534" type="curve" smooth="yes"/>
      <point x="135" y="565"/>
      <point x="156" y="592"/>
      <point x="199" y="631" type="curve" smooth="yes"/>
      <point x="265" y="691"/>
      <point x="400" y="739"/>
      <point x="479" y="673" type="curve" smooth="yes"/>
      <point x="497" y="653"/>
      <point x="514" y="661"/>
      <point x="520" y="665" type="curve" smooth="yes"/>
      <point x="590" y="716"/>
      <point x="701" y="749"/>
      <point x="772" y="690" type="curve" smooth="yes"/>
      <point x="782" y="681"/>
      <point x="787" y="675"/>
      <point x="787" y="666" type="curve" smooth="yes"/>
      <point x="787" y="651"/>
      <point x="752" y="618"/>
      <point x="737" y="618" type="curve" smooth="yes"/>
      <point x="728" y="618"/>
      <point x="723" y="622"/>
      <point x="713" y="632" type="curve" smooth="yes"/>
      <point x="680" y="662"/>
      <point x="656" y="668"/>
      <point x="619" y="668" type="curve" smooth="yes"/>
      <point x="564" y="668"/>
      <point x="509" y="621"/>
      <point x="496" y="565" type="curve" smooth="yes"/>
      <point x="491" y="541"/>
      <point x="489" y="519"/>
      <point x="489" y="444" type="curve" smooth="yes"/>
      <point x="489" y="435"/>
      <point x="490" y="420"/>
      <point x="501" y="419" type="curve" smooth="yes"/>
      <point x="531" y="415"/>
      <point x="614" y="416"/>
      <point x="685" y="419" type="curve" smooth="yes"/>
      <point x="715" y="420"/>
      <point x="727" y="421"/>
      <point x="772" y="436" type="curve" smooth="yes"/>
      <point x="784" y="440"/>
      <point x="790" y="421"/>
      <point x="790" y="412" type="curve" smooth="yes"/>
      <point x="790" y="88" type="line" smooth="yes"/>
      <point x="790" y="35"/>
      <point x="802" y="31"/>
      <point x="841" y="31" type="curve" smooth="yes"/>
      <point x="846" y="32"/>
      <point x="851" y="32"/>
      <point x="855" y="31" type="curve" smooth="yes"/>
      <point x="863" y="30"/>
      <point x="861" y="-2"/>
    </contour>
    <contour>
      <point x="436" y="583" type="curve" smooth="yes"/>
      <point x="442" y="595"/>
      <point x="427" y="608"/>
      <point x="420" y="615" type="curve" smooth="yes"/>
      <point x="387" y="645"/>
      <point x="356" y="651"/>
      <point x="320" y="651" type="curve" smooth="yes"/>
      <point x="265" y="651"/>
      <point x="209" y="605"/>
      <point x="197" y="549" type="curve" smooth="yes"/>
      <point x="191" y="524"/>
      <point x="190" y="511"/>
      <point x="190" y="435" type="curve" smooth="yes"/>
      <point x="190" y="428"/>
      <point x="193" y="415"/>
      <point x="203" y="414" type="curve" smooth="yes"/>
      <point x="249" y="412"/>
      <point x="329" y="410"/>
      <point x="393" y="414" type="curve" smooth="yes"/>
      <point x="415" y="416"/>
      <point x="408" y="448"/>
      <point x="409" y="465" type="curve" smooth="yes"/>
      <point x="411" y="513"/>
      <point x="417" y="549"/>
    </contour>
  </outline>
</glyph>
<glyph name="exclam.csc" format="1">
  <advance width="189"/>
  <outline>
    <contour>
      <point x="134" y="470" type="curve" smooth="yes"/>
      <point x="110" y="136" type="line"/>
      <point x="105" y="124"/>
      <point x="84" y="126"/>
      <point x="81" y="136" type="curve" smooth="yes"/>
      <point x="57" y="470" type="line" smooth="yes"/>
      <point x="56" y="490"/>
      <point x="59" y="506"/>
      <point x="87" y="506" type="curve" smooth="yes"/>
      <point x="107" y="506" type="line" smooth="yes"/>
      <point x="136" y="506"/>
      <point x="135" y="492"/>
    </contour>
    <contour>
      <point x="96" y="-11" type="curve" smooth="yes"/>
      <point x="73" y="-11"/>
      <point x="55" y="7"/>
      <point x="55" y="32" type="curve" smooth="yes"/>
      <point x="55" y="45"/>
      <point x="56" y="55"/>
      <point x="67" y="64" type="curve" smooth="yes"/>
      <point x="78" y="72"/>
      <point x="85" y="76"/>
      <point x="96" y="76" type="curve" smooth="yes"/>
      <point x="118" y="76"/>
      <point x="137" y="55"/>
      <point x="137" y="29" type="curve" smooth="yes"/>
      <point x="137" y="17"/>
      <point x="130" y="12"/>
      <point x="125" y="2" type="curve" smooth="yes"/>
      <point x="119" y="-8"/>
      <point x="107" y="-11"/>
    </contour>
  </outline>
</glyph>
<glyph name="four.lining" format="1">
  <advance width="489"/>
  <outline>
    <contour>
      <point x="469" y="228" type="curve" smooth="yes"/>
      <point x="473" y="218"/>
      <point x="467" y="198"/>
      <point x="468" y="192" type="curve" smooth="yes"/>
      <point x="466" y="183"/>
      <point x="459" y="180"/>
      <point x="453" y="179" type="curve" smooth="yes"/>
      <point x="385" y="176" type="line"/>
      <point x="385" y="176"/>
      <point x="368" y="176"/>
      <point x="369" y="155" type="curve" smooth="yes"/>
      <point x="371" y="108"/>
      <point x="373" y="43"/>
      <point x="371" y="5" type="curve" smooth="yes"/>
      <point x="371" y="-2"/>
      <point x="367" y="-17"/>
      <point x="352" y="-18" type="curve" smooth="yes"/>
      <point x="346" y="-17"/>
      <point x="325" y="-16"/>
      <point x="310" y="-17" type="curve" smooth="yes"/>
      <point x="297" y="-17"/>
      <point x="290" y="-6"/>
      <point x="290" y="6" type="curve" smooth="yes"/>
      <point x="289" y="41"/>
      <point x="288" y="114"/>
      <point x="290" y="153" type="curve" smooth="yes"/>
      <point x="287" y="172"/>
      <point x="284" y="173"/>
      <point x="276" y="175" type="curve" smooth="yes"/>
      <point x="224" y="171"/>
      <point x="120" y="172"/>
      <point x="54" y="175" type="curve" smooth="yes"/>
      <point x="40" y="176"/>
      <point x="37" y="183"/>
      <point x="37" y="191" type="curve" smooth="yes"/>
      <point x="37" y="208" type="line"/>
      <point x="74" y="267"/>
      <point x="191" y="447"/>
      <point x="320" y="625" type="curve" smooth="yes"/>
      <point x="329" y="637"/>
      <point x="332" y="640"/>
      <point x="349" y="640" type="curve" smooth="yes"/>
      <point x="352" y="640" type="line"/>
      <point x="370" y="635"/>
      <point x="371" y="621"/>
      <point x="369" y="610" type="curve" smooth="yes"/>
      <point x="369" y="259" type="line" smooth="yes"/>
      <point x="369" y="247"/>
      <point x="380" y="243"/>
      <point x="383" y="241" type="curve" smooth="yes"/>
      <point x="451" y="243" type="line" smooth="yes"/>
      <point x="460" y="241"/>
      <point x="465" y="243"/>
    </contour>
    <contour>
      <point x="290" y="258" type="curve" smooth="yes"/>
      <point x="292" y="313"/>
      <point x="292" y="412"/>
      <point x="290" y="481" type="curve" smooth="yes"/>
      <point x="287" y="499"/>
      <point x="285" y="504"/>
      <point x="276" y="497" type="curve" smooth="yes"/>
      <point x="214" y="414"/>
      <point x="132" y="288"/>
      <point x="113" y="253" type="curve" smooth="yes"/>
      <point x="111" y="248"/>
      <point x="116" y="241"/>
      <point x="132" y="239" type="curve" smooth="yes"/>
      <point x="168" y="236"/>
      <point x="226" y="237"/>
      <point x="274" y="239" type="curve" smooth="yes"/>
      <point x="278" y="240"/>
      <point x="289" y="244"/>
    </contour>
  </outline>
</glyph>
<glyph name="g.sc" format="1">
  <advance width="546"/>
  <outline>
    <contour>
      <point x="470" y="134" type="curve" smooth="yes"/>
      <point x="468" y="108"/>
      <point x="469" y="73"/>
      <point x="470" y="54" type="curve" smooth="yes"/>
      <point x="468" y="39"/>
      <point x="462" y="32"/>
      <point x="456" y="29" type="curve" smooth="yes"/>
      <point x="406" y="4"/>
      <point x="335" y="-14"/>
      <point x="280" y="-14" type="curve" smooth="yes"/>
      <point x="143" y="-14"/>
      <point x="52" y="90"/>
      <point x="52" y="230" type="curve" smooth="yes"/>
      <point x="52" y="371"/>
      <point x="154" y="490"/>
      <point x="299" y="490" type="curve" smooth="yes"/>
      <point x="337" y="490"/>
      <point x="362" y="484"/>
      <point x="413" y="469" type="curve" smooth="yes"/>
      <point x="423" y="466"/>
      <point x="435" y="461"/>
      <point x="444" y="469" type="curve" smooth="yes"/>
      <point x="450" y="471"/>
      <point x="455" y="471"/>
      <point x="462" y="470" type="curve" smooth="yes"/>
      <point x="464" y="469"/>
      <point x="468" y="462"/>
      <point x="468" y="449" type="curve" smooth="yes"/>
      <point x="470" y="417"/>
      <point x="469" y="366"/>
      <point x="468" y="340" type="curve" smooth="yes"/>
      <point x="467" y="323"/>
      <point x="437" y="326"/>
      <point x="435" y="337" type="curve" smooth="yes"/>
      <point x="420" y="415"/>
      <point x="380" y="453"/>
      <point x="310" y="453" type="curve" smooth="yes"/>
      <point x="200" y="453"/>
      <point x="137" y="371"/>
      <point x="137" y="235" type="curve" smooth="yes"/>
      <point x="137" y="109"/>
      <point x="201" y="27"/>
      <point x="302" y="27" type="curve" smooth="yes"/>
      <point x="328" y="27"/>
      <point x="354" y="33"/>
      <point x="380" y="45" type="curve" smooth="yes"/>
      <point x="385" y="47"/>
      <point x="393" y="64"/>
      <point x="393" y="74" type="curve" smooth="yes"/>
      <point x="393" y="127" type="line" smooth="yes"/>
      <point x="393" y="163"/>
      <point x="383" y="176"/>
      <point x="346" y="176" type="curve" smooth="yes"/>
      <point x="334" y="176"/>
      <point x="318" y="170"/>
      <point x="311" y="183" type="curve" smooth="yes"/>
      <point x="306" y="192"/>
      <point x="307" y="209"/>
      <point x="323" y="212" type="curve" smooth="yes"/>
      <point x="363" y="210"/>
      <point x="449" y="208"/>
      <point x="504" y="212" type="curve" smooth="yes"/>
      <point x="524" y="213"/>
      <point x="521" y="179"/>
      <point x="508" y="179" type="curve" smooth="yes"/>
      <point x="479" y="178"/>
      <point x="470" y="168"/>
    </contour>
  </outline>
</glyph>
<glyph name="iacute.sc" format="1">
  <advance width="293"/>
  <outline>
    <contour>
      <point x="231" y="-3" type="curve" smooth="yes"/>
      <point x="187" y="-2"/>
      <point x="109" y="-3"/>
      <point x="63" y="-3" type="curve" smooth="yes"/>
      <point x="52" y="-2"/>
      <point x="50" y="8"/>
      <point x="50" y="14" type="curve" smooth="yes"/>
      <point x="50" y="36"/>
      <point x="66" y="33"/>
      <point x="73" y="34" type="curve" smooth="yes"/>
      <point x="76" y="34"/>
      <point x="80" y="34"/>
      <point x="83" y="34" type="curve" smooth="yes"/>
      <point x="93" y="35"/>
      <point x="106" y="39"/>
      <point x="107" y="77" type="curve" smooth="yes"/>
      <point x="108" y="102" type="line" smooth="yes"/>
      <point x="110" y="179"/>
      <point x="110" y="289"/>
      <point x="108" y="375" type="curve" smooth="yes"/>
      <point x="107" y="400" type="line" smooth="yes"/>
      <point x="106" y="433"/>
      <point x="104" y="442"/>
      <point x="68" y="444" type="curve" smooth="yes"/>
      <point x="63" y="444"/>
      <point x="57" y="446"/>
      <point x="55" y="451" type="curve" smooth="yes"/>
      <point x="53" y="456"/>
      <point x="52" y="465"/>
      <point x="55" y="471" type="curve" smooth="yes"/>
      <point x="58" y="480"/>
      <point x="67" y="478"/>
      <point x="76" y="478" type="curve" smooth="yes"/>
      <point x="119" y="476"/>
      <point x="176" y="476"/>
      <point x="219" y="477" type="curve" smooth="yes"/>
      <point x="228" y="478"/>
      <point x="236" y="479"/>
      <point x="239" y="470" type="curve" smooth="yes"/>
      <point x="241" y="465"/>
      <point x="240" y="457"/>
      <point x="238" y="452" type="curve" smooth="yes"/>
      <point x="235" y="443"/>
      <point x="230" y="444"/>
      <point x="222" y="444" type="curve" smooth="yes"/>
      <point x="187" y="443"/>
      <point x="183" y="438"/>
      <point x="182" y="375" type="curve" smooth="yes"/>
      <point x="181" y="311"/>
      <point x="181" y="162"/>
      <point x="182" y="76" type="curve" smooth="yes"/>
      <point x="182" y="36"/>
      <point x="196" y="33"/>
      <point x="227" y="33" type="curve" smooth="yes"/>
      <point x="234" y="33"/>
      <point x="238" y="33"/>
      <point x="242" y="26" type="curve" smooth="yes"/>
      <point x="247" y="14"/>
      <point x="240" y="-3"/>
    </contour>
    <contour>
      <point x="298" y="723" type="curve" smooth="yes"/>
      <point x="298" y="721"/>
      <point x="297" y="719"/>
      <point x="297" y="718" type="curve" smooth="yes"/>
      <point x="154" y="546" type="line" smooth="yes"/>
      <point x="148" y="539"/>
      <point x="123" y="539"/>
      <point x="128" y="555" type="curve" smooth="yes"/>
      <point x="177" y="719" type="line" smooth="yes"/>
      <point x="181" y="727"/>
      <point x="189" y="732"/>
      <point x="196" y="732" type="curve" smooth="yes"/>
      <point x="284" y="732" type="line" smooth="yes"/>
      <point x="291" y="733"/>
      <point x="300" y="731"/>
    </contour>
  </outline>
</glyph>
<glyph name="ocircumflex.sc" format="1">
  <advance width="577"/>
  <outline>
    <contour>
      <point x="289" y="-14" type="curve" smooth="yes"/>
      <point x="145" y="-14"/>
      <point x="40" y="94"/>
      <point x="40" y="232" type="curve" smooth="yes"/>
      <point x="40" y="380"/>
      <point x="143" y="490"/>
      <point x="290" y="490" type="curve" smooth="yes"/>
      <point x="435" y="490"/>
      <point x="536" y="383"/>
      <point x="536" y="245" type="curve" smooth="yes"/>
      <point x="536" y="97"/>
      <point x="432" y="-14"/>
    </contour>
    <contour>
      <point x="282" y="450" type="curve" smooth="yes"/>
      <point x="186" y="452"/>
      <point x="125" y="348"/>
      <point x="125" y="246" type="curve" smooth="yes"/>
      <point x="125" y="118"/>
      <point x="196" y="24"/>
      <point x="299" y="24" type="curve" smooth="yes"/>
      <point x="414" y="24"/>
      <point x="451" y="134"/>
      <point x="451" y="229" type="curve" smooth="yes"/>
      <point x="451" y="362"/>
      <point x="390" y="449"/>
    </contour>
    <contour>
      <point x="421" y="561" type="line" smooth="yes"/>
      <point x="423" y="556"/>
      <point x="426" y="549"/>
      <point x="420" y="548" type="curve" smooth="yes"/>
      <point x="413" y="546"/>
      <point x="403" y="547"/>
      <point x="400" y="550" type="curve" smooth="yes"/>
      <point x="278" y="654" type="line"/>
      <point x="163" y="550" type="line" smooth="yes"/>
      <point x="155" y="543"/>
      <point x="135" y="548"/>
      <point x="139" y="556" type="curve" smooth="yes"/>
      <point x="228" y="712" type="line" smooth="yes"/>
      <point x="231" y="717"/>
      <point x="236" y="720"/>
      <point x="241" y="722" type="curve" smooth="yes"/>
      <point x="248" y="723"/>
      <point x="303" y="724"/>
      <point x="316" y="723" type="curve" smooth="yes"/>
      <point x="326" y="722"/>
      <point x="328" y="721"/>
      <point x="333" y="713" type="curve" smooth="yes"/>
    </contour>
  </outline>
</glyph>
<glyph name="otilde.sc" format="1">
  <advance width="577"/>
  <outline>
    <contour>
      <point x="289" y="-14" type="curve" smooth="yes"/>
      <point x="145" y="-14"/>
      <point x="40" y="94"/>
      <point x="40" y="232" type="curve" smooth="yes"/>
      <point x="40" y="380"/>
      <point x="143" y="490"/>
      <point x="290" y="490" type="curve" smooth="yes"/>
      <point x="435" y="490"/>
      <point x="536" y="383"/>
      <point x="536" y="245" type="curve" smooth="yes"/>
      <point x="536" y="97"/>
      <point x="432" y="-14"/>
    </contour>
    <contour>
      <point x="282" y="450" type="curve" smooth="yes"/>
      <point x="186" y="452"/>
      <point x="125" y="348"/>
      <point x="125" y="246" type="curve" smooth="yes"/>
      <point x="125" y="118"/>
      <point x="196" y="24"/>
      <point x="299" y="24" type="curve" smooth="yes"/>
      <point x="414" y="24"/>
      <point x="451" y="134"/>
      <point x="451" y="229" type="curve" smooth="yes"/>
      <point x="451" y="362"/>
      <point x="390" y="449"/>
    </contour>
    <contour>
      <point x="440" y="668" type="curve" smooth="yes"/>
      <point x="440" y="597"/>
      <point x="399" y="544"/>
      <point x="341" y="544" type="curve" smooth="yes"/>
      <point x="314" y="544"/>
      <point x="282" y="557"/>
      <point x="244" y="583" type="curve" smooth="yes"/>
      <point x="207" y="609"/>
      <point x="198" y="612"/>
      <point x="185" y="612" type="curve" smooth="yes"/>
      <point x="166" y="612"/>
      <point x="156" y="601"/>
      <point x="148" y="565" type="curve" smooth="yes"/>
      <point x="148" y="561"/>
      <point x="146" y="557"/>
      <point x="145" y="547" type="curve" smooth="yes"/>
      <point x="141" y="539"/>
      <point x="120" y="534"/>
      <point x="118" y="547" type="curve" smooth="yes"/>
      <point x="122" y="633"/>
      <point x="155" y="682"/>
      <point x="216" y="682" type="curve" smooth="yes"/>
      <point x="246" y="682"/>
      <point x="269" y="673"/>
      <point x="314" y="642" type="curve" smooth="yes"/>
      <point x="345" y="621"/>
      <point x="361" y="615"/>
      <point x="373" y="615" type="curve" smooth="yes"/>
      <point x="394" y="615"/>
      <point x="405" y="627"/>
      <point x="413" y="681" type="curve" smooth="yes"/>
      <point x="413" y="685"/>
      <point x="420" y="687"/>
      <point x="426" y="687" type="curve" smooth="yes"/>
      <point x="432" y="688"/>
      <point x="438" y="685"/>
      <point x="438" y="681" type="curve" smooth="yes"/>
      <point x="440" y="675"/>
      <point x="440" y="671"/>
    </contour>
  </outline>
</glyph>
<glyph name="parenright.csc" format="1">
  <advance width="284"/>
  <outline>
    <contour>
      <point x="46" y="-191" type="curve" smooth="yes"/>
      <point x="27" y="-206"/>
      <point x="-5" y="-184"/>
      <point x="11" y="-158" type="curve"/>
      <point x="50" y="-114"/>
      <point x="92" y="-40"/>
      <point x="116" y="26" type="curve" smooth="yes"/>
      <point x="140" y="89"/>
      <point x="150" y="147"/>
      <point x="150" y="228" type="curve" smooth="yes"/>
      <point x="150" y="344"/>
      <point x="127" y="425"/>
      <point x="68" y="531" type="curve" smooth="yes"/>
      <point x="47" y="569"/>
      <point x="39" y="582"/>
      <point x="17" y="606" type="curve" smooth="yes"/>
      <point x="10" y="615"/>
      <point x="10" y="630"/>
      <point x="20" y="639" type="curve" smooth="yes"/>
      <point x="32" y="649"/>
      <point x="46" y="647"/>
      <point x="54" y="638" type="curve" smooth="yes"/>
      <point x="154" y="527"/>
      <point x="215" y="378"/>
      <point x="215" y="228" type="curve" smooth="yes"/>
      <point x="215" y="74"/>
      <point x="151" y="-79"/>
    </contour>
  </outline>
</glyph>
<glyph name="r.sc" format="1">
  <advance width="520"/>
  <outline>
    <contour>
      <point x="474" y="-10" type="curve" smooth="yes"/>
      <point x="469" y="-11"/>
      <point x="464" y="-11"/>
      <point x="459" y="-11" type="curve" smooth="yes"/>
      <point x="397" y="-11"/>
      <point x="372" y="12"/>
      <point x="354" y="35" type="curve" smooth="yes"/>
      <point x="326" y="69"/>
      <point x="304" y="107"/>
      <point x="282" y="145" type="curve" smooth="yes"/>
      <point x="272" y="161"/>
      <point x="266" y="179"/>
      <point x="255" y="193" type="curve"/>
      <point x="231" y="191"/>
      <point x="211" y="191"/>
      <point x="186" y="192" type="curve" smooth="yes"/>
      <point x="180" y="192"/>
      <point x="178" y="182"/>
      <point x="178" y="170" type="curve" smooth="yes"/>
      <point x="178" y="135"/>
      <point x="178" y="111"/>
      <point x="179" y="77" type="curve" smooth="yes"/>
      <point x="180" y="41"/>
      <point x="187" y="36"/>
      <point x="225" y="36" type="curve" smooth="yes"/>
      <point x="240" y="36" type="line" smooth="yes"/>
      <point x="244" y="36"/>
      <point x="259" y="30"/>
      <point x="252" y="3" type="curve" smooth="yes"/>
      <point x="250" y="-4"/>
      <point x="238" y="-3"/>
      <point x="233" y="-3" type="curve" smooth="yes"/>
      <point x="174" y="-1"/>
      <point x="84" y="-2"/>
      <point x="43" y="-3" type="curve" smooth="yes"/>
      <point x="38" y="-4"/>
      <point x="32" y="0"/>
      <point x="29" y="7" type="curve" smooth="yes"/>
      <point x="26" y="12"/>
      <point x="28" y="20"/>
      <point x="30" y="25" type="curve" smooth="yes"/>
      <point x="34" y="36"/>
      <point x="45" y="35"/>
      <point x="54" y="35" type="curve" smooth="yes"/>
      <point x="92" y="35"/>
      <point x="101" y="41"/>
      <point x="101" y="76" type="curve" smooth="yes"/>
      <point x="101" y="101" type="line"/>
      <point x="101" y="375" type="line" smooth="yes"/>
      <point x="101" y="442"/>
      <point x="100" y="445"/>
      <point x="40" y="445" type="curve" smooth="yes"/>
      <point x="24" y="445"/>
      <point x="24" y="476"/>
      <point x="39" y="477" type="curve" smooth="yes"/>
      <point x="92" y="486"/>
      <point x="156" y="485"/>
      <point x="210" y="485" type="curve" smooth="yes"/>
      <point x="294" y="485"/>
      <point x="322" y="471"/>
      <point x="357" y="438" type="curve" smooth="yes"/>
      <point x="382" y="413"/>
      <point x="397" y="380"/>
      <point x="397" y="344" type="curve" smooth="yes"/>
      <point x="397" y="288"/>
      <point x="366" y="244"/>
      <point x="323" y="222" type="curve"/>
      <point x="340" y="192"/>
      <point x="353" y="168"/>
      <point x="366" y="146" type="curve" smooth="yes"/>
      <point x="404" y="85" type="line" smooth="yes"/>
      <point x="421" y="58"/>
      <point x="450" y="32"/>
      <point x="482" y="24" type="curve" smooth="yes"/>
      <point x="495" y="18"/>
      <point x="495" y="6"/>
      <point x="488" y="-5" type="curve" smooth="yes"/>
      <point x="483" y="-9"/>
      <point x="479" y="-10"/>
    </contour>
    <contour>
      <point x="204" y="449" type="curve" smooth="yes"/>
      <point x="197" y="450"/>
      <point x="195" y="448"/>
      <point x="188" y="448" type="curve" smooth="yes"/>
      <point x="181" y="448"/>
      <point x="179" y="437"/>
      <point x="178" y="432" type="curve" smooth="yes"/>
      <point x="178" y="243" type="line" smooth="yes"/>
      <point x="179" y="237"/>
      <point x="179" y="228"/>
      <point x="184" y="227" type="curve" smooth="yes"/>
      <point x="205" y="226"/>
      <point x="230" y="226"/>
      <point x="245" y="232" type="curve" smooth="yes"/>
      <point x="288" y="247"/>
      <point x="311" y="290"/>
      <point x="311" y="338" type="curve" smooth="yes"/>
      <point x="311" y="406"/>
      <point x="290" y="449"/>
    </contour>
  </outline>
</glyph>
<glyph name="seven.lining" format="1">
  <advance width="489"/>
  <outline>
    <contour>
      <point x="423" y="602" type="curve" smooth="yes"/>
      <point x="421" y="587" type="line"/>
      <point x="187" y="-3" type="line" smooth="yes"/>
      <point x="184" y="-11"/>
      <point x="175" y="-20"/>
      <point x="162" y="-18" type="curve" smooth="yes"/>
      <point x="129" y="-13" type="line" smooth="yes"/>
      <point x="117" y="-11"/>
      <point x="114" y="-1"/>
      <point x="119" y="10" type="curve" smooth="yes"/>
      <point x="341" y="526" type="line" smooth="yes"/>
      <point x="344" y="533"/>
      <point x="336" y="547"/>
      <point x="321" y="546" type="curve" smooth="yes"/>
      <point x="224" y="542"/>
      <point x="165" y="544"/>
      <point x="130" y="544" type="curve" smooth="yes"/>
      <point x="86" y="545"/>
      <point x="82" y="544"/>
      <point x="77" y="539" type="curve" smooth="yes"/>
      <point x="72" y="535"/>
      <point x="68" y="526"/>
      <point x="63" y="497" type="curve" smooth="yes"/>
      <point x="62" y="493"/>
      <point x="56" y="489"/>
      <point x="47" y="489" type="curve" smooth="yes"/>
      <point x="37" y="489"/>
      <point x="33" y="495"/>
      <point x="33" y="501" type="curve" smooth="yes"/>
      <point x="38" y="592" type="line" smooth="yes"/>
      <point x="39" y="605"/>
      <point x="60" y="626"/>
      <point x="74" y="624" type="curve" smooth="yes"/>
      <point x="158" y="621"/>
      <point x="267" y="620"/>
      <point x="397" y="624" type="curve" smooth="yes"/>
      <point x="411" y="624"/>
      <point x="425" y="614"/>
    </contour>
  </outline>
</glyph>
<glyph name="two.lining" format="1">
  <advance width="489"/>
  <outline>
    <contour>
      <point x="444" y="131" type="curve" smooth="yes"/>
      <point x="445" y="100"/>
      <point x="433" y="41"/>
      <point x="429" y="15" type="curve" smooth="yes"/>
      <point x="426" y="4"/>
      <point x="409" y="-4"/>
      <point x="395" y="-4" type="curve" smooth="yes"/>
      <point x="318" y="-4"/>
      <point x="198" y="4"/>
      <point x="66" y="-4" type="curve" smooth="yes"/>
      <point x="58" y="-4"/>
      <point x="43" y="-1"/>
      <point x="39" y="6" type="curve" smooth="yes"/>
      <point x="38" y="14" type="line" smooth="yes"/>
      <point x="37" y="22"/>
      <point x="47" y="30"/>
      <point x="49" y="34" type="curve" smooth="yes"/>
      <point x="74" y="63"/>
      <point x="110" y="103"/>
      <point x="170" y="165" type="curve" smooth="yes"/>
      <point x="248" y="245"/>
      <point x="333" y="320"/>
      <point x="333" y="444" type="curve" smooth="yes"/>
      <point x="333" y="516"/>
      <point x="298" y="569"/>
      <point x="229" y="569" type="curve" smooth="yes"/>
      <point x="167" y="569"/>
      <point x="109" y="523"/>
      <point x="84" y="447" type="curve" smooth="yes"/>
      <point x="81" y="438"/>
      <point x="71" y="435"/>
      <point x="64" y="435" type="curve" smooth="yes"/>
      <point x="53" y="435"/>
      <point x="52" y="443"/>
      <point x="53" y="448" type="curve" smooth="yes"/>
      <point x="70" y="565"/>
      <point x="151" y="640"/>
      <point x="258" y="640" type="curve" smooth="yes"/>
      <point x="366" y="640"/>
      <point x="426" y="562"/>
      <point x="426" y="458" type="curve" smooth="yes"/>
      <point x="426" y="402"/>
      <point x="397" y="360"/>
      <point x="365" y="319" type="curve" smooth="yes"/>
      <point x="300" y="235"/>
      <point x="223" y="168"/>
      <point x="150" y="92" type="curve" smooth="yes"/>
      <point x="144" y="86"/>
      <point x="141" y="75"/>
      <point x="173" y="72" type="curve"/>
      <point x="211" y="74"/>
      <point x="278" y="74"/>
      <point x="308" y="72" type="curve" smooth="yes"/>
      <point x="380" y="68"/>
      <point x="403" y="76"/>
      <point x="414" y="132" type="curve" smooth="yes"/>
      <point x="415" y="137"/>
      <point x="422" y="146"/>
      <point x="431" y="148" type="curve"/>
      <point x="436" y="146" type="line" smooth="yes"/>
      <point x="442" y="146"/>
      <point x="444" y="143"/>
    </contour>
  </outline>
</glyph>
<glyph name="x.sc" format="1">
  <advance width="568"/>
  <outline>
    <contour>
      <point x="270" y="194" type="curve" smooth="yes"/>
      <point x="266" y="187"/>
      <point x="176" y="70"/>
      <point x="176" y="70" type="curve" smooth="yes"/>
      <point x="164" y="56"/>
      <point x="160" y="45"/>
      <point x="160" y="41" type="curve" smooth="yes"/>
      <point x="160" y="37"/>
      <point x="161" y="32"/>
      <point x="196" y="32" type="curve" smooth="yes"/>
      <point x="202" y="32" type="line" smooth="yes"/>
      <point x="220" y="32"/>
      <point x="222" y="-4"/>
      <point x="204" y="-3" type="curve" smooth="yes"/>
      <point x="155" y="-1"/>
      <point x="75" y="-2"/>
      <point x="43" y="-3" type="curve" smooth="yes"/>
      <point x="34" y="-3"/>
      <point x="31" y="8"/>
      <point x="31" y="14" type="curve" smooth="yes"/>
      <point x="31" y="19"/>
      <point x="32" y="31"/>
      <point x="43" y="31" type="curve" smooth="yes"/>
      <point x="68" y="33"/>
      <point x="86" y="39"/>
      <point x="100" y="50" type="curve" smooth="yes"/>
      <point x="116" y="63"/>
      <point x="133" y="91"/>
      <point x="145" y="107" type="curve" smooth="yes"/>
      <point x="242" y="236" type="line" smooth="yes"/>
      <point x="246" y="241"/>
      <point x="243" y="243"/>
      <point x="242" y="247" type="curve" smooth="yes"/>
      <point x="146" y="378" type="line" smooth="yes"/>
      <point x="105" y="432"/>
      <point x="95" y="442"/>
      <point x="45" y="444" type="curve" smooth="yes"/>
      <point x="40" y="444"/>
      <point x="33" y="445"/>
      <point x="31" y="450" type="curve" smooth="yes"/>
      <point x="30" y="456"/>
      <point x="30" y="462"/>
      <point x="32" y="468" type="curve" smooth="yes"/>
      <point x="36" y="476"/>
      <point x="40" y="477"/>
      <point x="47" y="477" type="curve" smooth="yes"/>
      <point x="108" y="477"/>
      <point x="158" y="476"/>
      <point x="236" y="478" type="curve" smooth="yes"/>
      <point x="248" y="478"/>
      <point x="254" y="478"/>
      <point x="256" y="464" type="curve" smooth="yes"/>
      <point x="258" y="455"/>
      <point x="255" y="444"/>
      <point x="247" y="444" type="curve" smooth="yes"/>
      <point x="203" y="443"/>
      <point x="200" y="441"/>
      <point x="200" y="435" type="curve" smooth="yes"/>
      <point x="200" y="428"/>
      <point x="217" y="407"/>
      <point x="221" y="401" type="curve" smooth="yes"/>
      <point x="284" y="313" type="line" smooth="yes"/>
      <point x="291" y="304"/>
      <point x="295" y="309"/>
      <point x="302" y="315" type="curve" smooth="yes"/>
      <point x="325" y="348"/>
      <point x="353" y="384"/>
      <point x="376" y="419" type="curve" smooth="yes"/>
      <point x="395" y="449"/>
      <point x="372" y="443"/>
      <point x="348" y="443" type="curve" smooth="yes"/>
      <point x="328" y="443"/>
      <point x="328" y="461"/>
      <point x="334" y="471" type="curve" smooth="yes"/>
      <point x="339" y="479"/>
      <point x="346" y="478"/>
      <point x="354" y="477" type="curve" smooth="yes"/>
      <point x="394" y="476"/>
      <point x="470" y="476"/>
      <point x="507" y="477" type="curve" smooth="yes"/>
      <point x="517" y="476"/>
      <point x="521" y="467"/>
      <point x="521" y="460" type="curve" smooth="yes"/>
      <point x="521" y="453"/>
      <point x="517" y="444"/>
      <point x="508" y="444" type="curve" smooth="yes"/>
      <point x="473" y="442"/>
      <point x="463" y="436"/>
      <point x="441" y="416" type="curve" smooth="yes"/>
      <point x="433" y="410"/>
      <point x="426" y="403"/>
      <point x="419" y="396" type="curve" smooth="yes"/>
      <point x="385" y="358"/>
      <point x="357" y="312"/>
      <point x="327" y="271" type="curve" smooth="yes"/>
      <point x="327" y="270"/>
      <point x="322" y="262"/>
      <point x="327" y="255" type="curve" smooth="yes"/>
      <point x="444" y="95" type="line" smooth="yes"/>
      <point x="454" y="81"/>
      <point x="469" y="58"/>
      <point x="484" y="47" type="curve" smooth="yes"/>
      <point x="495" y="39"/>
      <point x="506" y="36"/>
      <point x="538" y="31" type="curve" smooth="yes"/>
      <point x="553" y="29"/>
      <point x="554" y="-3"/>
      <point x="538" y="-3" type="curve" smooth="yes"/>
      <point x="488" y="-2"/>
      <point x="407" y="-1"/>
      <point x="357" y="-3" type="curve" smooth="yes"/>
      <point x="348" y="-3"/>
      <point x="342" y="-2"/>
      <point x="339" y="7" type="curve" smooth="yes"/>
      <point x="335" y="17"/>
      <point x="340" y="32"/>
      <point x="350" y="32" type="curve" smooth="yes"/>
      <point x="359" y="32" type="line" smooth="yes"/>
      <point x="398" y="32"/>
      <point x="381" y="52"/>
      <point x="363" y="77" type="curve" smooth="yes"/>
      <point x="280" y="196" type="line" smooth="yes"/>
      <point x="276" y="200"/>
      <point x="273" y="198"/>
    </contour>
  </outline>
</glyph>
<glyph name="zero.lining" format="1">
  <advance width="489"/>
  <outline>
    <contour>
      <point x="456" y="311" type="curve" smooth="yes"/>
      <point x="456" y="131"/>
      <point x="365" y="-18"/>
      <point x="245" y="-18" type="curve" smooth="yes"/>
      <point x="125" y="-18"/>
      <point x="34" y="131"/>
      <point x="34" y="311" type="curve" smooth="yes"/>
      <point x="34" y="491"/>
      <point x="125" y="640"/>
      <point x="245" y="640" type="curve" smooth="yes"/>
      <point x="365" y="640"/>
      <point x="456" y="491"/>
    </contour>
    <contour>
      <point x="369" y="311" type="curve" smooth="yes"/>
      <point x="369" y="380"/>
      <point x="362" y="446"/>
      <point x="350" y="500" type="curve" smooth="yes"/>
      <point x="335" y="570"/>
      <point x="295" y="604"/>
      <point x="245" y="604" type="curve" smooth="yes"/>
      <point x="183" y="604"/>
      <point x="152" y="553"/>
      <point x="139" y="500" type="curve" smooth="yes"/>
      <point x="127" y="450"/>
      <point x="122" y="380"/>
      <point x="122" y="311" type="curve" smooth="yes"/>
      <point x="122" y="241"/>
      <point x="127" y="173"/>
      <point x="139" y="122" type="curve" smooth="yes"/>
      <point x="155" y="52"/>
      <point x="195" y="18"/>
      <point x="245" y="18" type="curve" smooth="yes"/>
      <point x="300" y="18"/>
      <point x="338" y="67"/>
      <point x="350" y="122" type="curve" smooth="yes"/>
      <point x="362" y="175"/>
      <point x="369" y="242"/>
    </contour>
  </outline>
</glyph>
